<?xml version="1.0" encoding="UTF-8" standalone="no"?>
<svg
   xmlns:dc="http://purl.org/dc/elements/1.1/"
   xmlns:cc="http://creativecommons.org/ns#"
   xmlns:rdf="http://www.w3.org/1999/02/22-rdf-syntax-ns#"
   xmlns:svg="http://www.w3.org/2000/svg"
   xmlns="http://www.w3.org/2000/svg"
   xmlns:sodipodi="http://sodipodi.sourceforge.net/DTD/sodipodi-0.dtd"
   xmlns:inkscape="http://www.inkscape.org/namespaces/inkscape"
   version="1.1"
   id="svg40"
   width="1018"
   height="1016"
   viewBox="0 0 1018 1016"
   sodipodi:docname="Untitled.png"
   inkscape:version="1.0.2-2 (e86c870879, 2021-01-15)">
  <metadata
     id="metadata46">
    <rdf:RDF>
      <cc:Work
         rdf:about="">
        <dc:format>image/svg+xml</dc:format>
        <dc:type
           rdf:resource="http://purl.org/dc/dcmitype/StillImage" />
        <dc:title></dc:title>
      </cc:Work>
    </rdf:RDF>
  </metadata>
  <defs
     id="defs44" />
  <sodipodi:namedview
     pagecolor="#ffffff"
     bordercolor="#666666"
     borderopacity="1"
     objecttolerance="10"
     gridtolerance="10"
     guidetolerance="10"
     inkscape:pageopacity="0"
     inkscape:pageshadow="2"
     inkscape:window-width="1920"
     inkscape:window-height="1017"
     id="namedview42"
     showgrid="false"
     inkscape:zoom="0.70710678"
     inkscape:cx="581.48156"
     inkscape:cy="437.58026"
     inkscape:window-x="-8"
     inkscape:window-y="-8"
     inkscape:window-maximized="1"
     inkscape:current-layer="g48" />
  <g
     inkscape:groupmode="layer"
     inkscape:label="Image"
     id="g48">
    <g
       id="g56">
      <path
         style="fill:#fdfdfd"
         d="M 0,508 V 0 h 509 509 v 508 508 H 509 0 Z M 530.60478,950.98315 C 592.53792,946.09942 637.9727,932.47047 675.5,907.51933 702.7216,889.42023 720.62013,869.21447 735.30948,840 c 8.56121,-17.02668 12.85898,-29.40193 16.71527,-48.13087 2.40259,-11.66877 3.29787,-14.27448 6.21955,-18.10208 6.83292,-8.95162 7.16054,-19.76673 0.86217,-28.46137 -2.69719,-3.72336 -2.80262,-4.3511 -3.41364,-20.32386 -0.77028,-20.1358 -2.68584,-33.48072 -7.22677,-50.34577 -5.77615,-21.45266 -14.755,-40.54986 -27.27859,-58.01908 -5.48649,-7.65313 -22.08763,-25.32937 -31.00841,-33.01653 l -4.32094,-3.72341 4.55181,-4.00666 c 3.67198,-3.23221 4.94209,-5.27024 6.57094,-10.54385 3.41881,-11.06882 2.34504,-19.60786 -3.2698,-26.00281 -4.8365,-5.50848 -8.45746,-6.62686 -23.71107,-7.32349 -14.7061,-0.67162 -17.7105,-1.59962 -23.83532,-7.36217 -4.7401,-4.45974 -6.30754,-8.01814 -6.30754,-14.31939 0,-7.8722 3.09239,-12.18313 11.82607,-16.48608 5.92453,-2.91892 7.9286,-3.37604 16.1456,-3.68269 9.08572,-0.33908 9.60671,-0.23721 16.52633,3.23138 3.92967,1.96982 11.41986,6.99312 16.64486,11.16288 5.225,4.16976 11.16957,8.45314 13.21016,9.51862 10.21426,5.33329 21.58716,-1.36199 22.5432,-13.2713 0.34851,-4.34138 0.005,-5.90925 -1.91429,-8.73219 -3.64253,-5.35808 -9.49556,-7.62507 -27.33907,-10.58895 -16.92479,-2.81127 -26.87487,-5.74186 -34.33105,-10.11147 C 667.689,468.14739 660,461.22418 660,459.50147 c 0,-0.72829 1.96874,-1.50631 4.75,-1.87715 2.6125,-0.34834 6.29969,-1.57772 8.19375,-2.73196 3.9388,-2.4003 7.63403,-2.19731 20.66366,1.13511 10.16415,2.59955 12.94044,2.51559 15.93804,-0.48202 C 711.52416,453.56675 712,452.0796 712,447.8742 712,439.70899 710.86372,439 697.77762,439 c -10.84934,0 -10.90851,-0.013 -10.23926,-2.25 0.56883,-1.90133 16.03922,-44.82859 18.53238,-51.42367 0.79123,-2.09302 0.99997,-2.1228 5.62549,-0.80262 2.64207,0.75407 8.16297,2.51972 12.26866,3.92367 24.67872,8.4389 50.11093,-5.28344 63.16986,-34.08429 6.83959,-15.0844 8.66715,-33.58911 4.82389,-48.84378 -4.21665,-16.73676 -14.5631,-32.58123 -25.43673,-38.9536 -18.10554,-10.61056 -44.89804,-5.73471 -73.52077,13.37973 l -9.3286,6.2297 -14.08627,-5.47239 c -7.74745,-3.0098 -16.41636,-6.22461 -19.26424,-7.14401 l -5.17797,-1.67162 0.57812,-3.69356 c 0.9871,-6.30654 4.94124,-18.59585 7.79581,-24.22906 6.14277,-12.12217 15.63186,-22.05907 35.50954,-37.18533 16.50812,-12.56212 24.95019,-20.87008 28.36296,-27.91235 5.6822,-11.72528 4.25455,-23.59635 -3.93295,-32.70282 -6.26292,-6.96588 -13.26076,-10.17068 -22.14561,-10.14204 -8.28553,0.0267 -13.52708,2.18118 -18.16909,7.46813 -4.54782,5.17969 -6.48364,10.08651 -11.19032,28.36479 -5.33792,20.72966 -8.04153,26.0753 -18.94185,37.45223 -11.41466,11.91376 -17.11199,15.36946 -27.55721,16.71477 -9.83685,1.26696 -16.25173,-0.0279 -21.06189,-4.25122 -6.69679,-5.87986 -3.80646,-14.03342 7.62548,-21.5113 12.63615,-8.26559 13.81756,-9.28627 16.02373,-13.84361 3.75621,-7.75927 1.02749,-18.81474 -6.13046,-24.83776 -6.78441,-5.7087 -10.66424,-7.00549 -21.0721,-7.04309 -9.15308,-0.0331 -9.88733,0.12354 -13.94536,2.97425 -5.33377,3.7469 -8.78894,10.26655 -9.00452,16.99085 -0.0882,2.75 0.19202,10.23684 0.62262,16.63742 0.77996,11.59341 0.7715,11.66182 -2.23744,18.09177 -4.57263,9.77149 -10.67323,13.24292 -14.97424,8.52081 C 547.9207,214.04063 547,211.41898 547,205.50804 c 0,-10.0458 6.82313,-38.80555 12.69456,-53.50804 5.94118,-14.87713 7.69316,-22.11072 7.75043,-32 0.0491,-8.47423 -0.20399,-9.86314 -2.34365,-12.86314 -3.79572,-5.32196 -10.9708,-7.520353 -16.4286,-5.03361 -3.14701,1.43387 -8.13771,11.84618 -10.10774,21.0882 -0.57019,2.6749 -0.61566,2.68794 -7.39189,2.11984 -13.01776,-1.09136 -14.77304,2.11098 -16.079,29.33453 -0.49746,10.3698 -1.44894,20.6527 -2.11441,22.85088 -0.67188,2.21937 -3.04872,5.8302 -5.34482,8.11971 -3.34874,3.33914 -5.75093,4.60472 -12.63488,6.65665 -14.34857,4.27693 -20.6799,4.97713 -29.06158,3.21399 -11.31882,-2.38099 -18.98422,-6.67685 -26.74788,-14.9901 -3.68531,-3.94619 -7.9125,-9.60985 -9.39377,-12.58592 -2.62492,-5.27383 -2.66469,-5.62017 -1.56816,-13.6593 1.96558,-14.41064 1.31158,-16.36782 -17.30286,-51.78163 -12.39146,-23.574629 -15.16986,-26.47303 -25.37003,-26.465819 -6.52495,0.0046 -9.12317,1.287235 -18.73985,9.250979 -3.40426,2.819125 -6.00314,4.014009 -10.42528,4.793219 C 342.48192,92.499271 339.17928,93.384731 333.5,96.185586 311.63239,106.97006 301.13265,125.35722 297.91618,158.5 c -0.64052,6.6 -1.53837,12.98835 -1.99523,14.19633 -0.86886,2.2974 -3.67495,3.35801 -14.14999,5.34825 -4.76243,0.90486 -6.28947,1.74326 -9.05073,4.96917 -10.97338,12.81992 -8.13128,38.15058 5.53539,49.33506 4.9629,4.06152 9.96216,6.15408 18.15719,7.60014 3.25205,0.57384 6.12896,1.25948 6.39313,1.52366 1.228,1.228 -4.2156,2.02739 -13.80594,2.02739 -11.9644,0 -20.99422,-2.48187 -35.5,-9.75728 -16.72441,-8.38817 -26.28753,-16.8851 -31.58819,-28.06643 -3.72756,-7.863 -7.52732,-10.99923 -15.48356,-12.77976 -4.5618,-1.02089 -6.06037,-0.89933 -12.30816,0.99837 -8.54736,2.59619 -13.53397,6.64142 -16.75374,13.59097 -4.66264,10.06382 -4.01521,17.93794 2.00227,24.35176 5.97228,6.36564 11.2271,7.86564 35.63138,10.17106 15.49132,1.46342 21.77932,3.21769 33,9.20655 24.6726,13.16861 38.71737,25.12159 40.60444,34.55695 0.8317,4.15849 -1.86596,9.79457 -5.61635,11.73397 -6.85996,3.54742 -18.4898,-1.57639 -36.48809,-16.0757 -19.16842,-15.44196 -26.47711,-19.82085 -41.75633,-25.01764 -29.33736,-9.97828 -62.44916,3.6823 -74.67129,30.80634 -3.74527,8.31172 -5.07551,15.0397 -5.0576,25.58006 0.0312,18.36351 6.34485,33.6137 19.33209,46.69534 9.11818,9.18446 17.95389,14.24252 30.00168,17.17468 6.39645,1.55675 7.81573,1.55604 21.5,-0.0109 20.78798,-2.38028 23.90532,-2.23486 32.97097,1.53805 6.46086,2.68886 9.06026,4.55899 16.36959,11.77707 7.15527,7.06593 9.40253,10.07632 12.73054,17.05356 11.24693,23.57942 6.06765,45.10221 -15.15167,62.9636 -8.92903,7.51601 -18.3296,12.42461 -31.64904,16.52583 -16.72434,5.14964 -31.54492,10.89148 -37.62693,14.57757 C 162.15943,507.96233 156,516.13395 156,524.30044 c 0,5.83253 5.0266,15.85613 9.7605,19.46352 3.26692,2.4895 4.36307,2.73604 12.16497,2.73604 7.78021,0 9.26931,-0.33248 16.07453,-3.58907 4.125,-1.97399 14.475,-8.2267 23,-13.89491 C 231.55359,519.33945 241.29874,514 244.40607,514 c 2.99388,0 3.57489,2.50268 1.40523,6.05297 -6.7893,11.1096 -8.78372,16.66622 -8.80048,24.51889 -0.0254,11.89208 5.60468,19.46251 15.92876,21.41856 15.11667,2.86407 15.95124,3.59203 13.42924,11.71364 -1.30015,4.18687 -1.80848,9.12737 -1.83103,17.79594 -0.0272,10.44695 0.26649,12.6471 2.26911,17 4.69825,10.21212 12.72155,15.39198 25.12045,16.21781 6.08897,0.40556 8.82992,0.0777 13.98973,-1.67363 7.80283,-2.64834 14.10676,-6.84732 17.74777,-11.82159 1.49864,-2.04743 3.05351,-4.11647 3.45527,-4.59788 0.40175,-0.4814 4.02657,1.81715 8.05517,5.10789 8.88179,7.25507 21.10384,15.64792 30.17275,20.71954 4.89481,2.73734 6.59114,4.20482 6.24551,5.40296 -3.32856,11.53855 -7.47121,35.33416 -8.60963,49.4542 -1.13867,14.12312 0.27358,25.94425 4.08713,34.21121 3.3447,7.25059 14.92671,18.36322 23.49902,22.54669 6.73369,3.28618 7.2839,3.38267 19.42993,3.40738 13.58202,0.0276 18.22122,-1.19663 29.47454,-7.77812 13.33679,-7.8 18.77341,-12.57008 35.08243,-30.78118 8.74919,-9.76959 12.87442,-13.53772 18.44137,-16.84499 l 7.17109,-4.26026 17.3674,8.5252 c 19.89584,9.76636 26.98742,14.29405 33.7839,21.56971 7.22825,7.73787 9.16812,12.73264 9.17422,23.62175 0.004,7.72646 -0.36344,9.74307 -2.55309,14 -5.71701,11.11448 -22.14734,18.59432 -47.37652,21.56795 -14.20189,1.6739 -55.99431,0.58887 -74.56534,-1.93589 -24.52466,-3.33417 -50.91013,-10.19344 -69.5,-18.06751 -6.85343,-2.90289 -7.01232,-3.05334 -7.58817,-7.18575 -0.4397,-3.15531 -1.50884,-5.06451 -4.23532,-7.56314 -3.17282,-2.90767 -4.33182,-3.34149 -8.91182,-3.33576 -3.45009,0.004 -6.23933,0.64919 -8.09239,1.87096 -2.76433,1.82259 -2.966,1.82055 -9,-0.0911 -10.85845,-3.44016 -21.99894,-0.94067 -28.09431,6.30326 -4.4313,5.26631 -6.1715,9.52597 -21.77903,53.311 -24.10158,67.61401 -23.23307,64.82364 -23.21916,74.59932 0.0213,14.97604 5.09343,20.77887 27.8534,31.86606 43.89869,21.38461 92.05248,33.93709 151.5668,39.50964 17.64359,1.65204 77.53229,2.03255 95.60478,0.60745 z M 796,795 c 1.16289,-1.16289 2,-3.33333 2,-5.18555 0,-7.11978 -8.44422,-10.46114 -13.54545,-5.3599 -2.9997,2.99969 -3.13134,6.41533 -0.38197,9.91059 2.64428,3.36165 8.86929,3.69299 11.92742,0.63486 z M 510.53582,762.87164 c 1.93305,-1.3044 5.19078,-4.78888 7.23941,-7.74329 3.56778,-5.14525 3.72477,-5.72086 3.72477,-13.65718 0,-7.74792 -0.19811,-8.5303 -3.05329,-12.05796 -5.64214,-6.97106 -15.46531,-10.0654 -22.44671,-7.07082 -4.79188,2.05542 -9.39262,7.21818 -11.5099,12.91595 -4.02522,10.83221 1.68687,25.55889 11.5099,29.67438 3.75809,1.57451 10.58201,0.60692 14.53582,-2.06108 z M 61.406587,651.75 c 3.880633,-3.46745 4.223176,-6.84812 1.073188,-10.59167 -3.16758,-3.76445 -6.95717,-4.14385 -10.844916,-1.08575 -3.538872,2.78368 -3.621354,8.03183 -0.180314,11.47287 3.058822,3.05883 6.674477,3.13314 9.952042,0.20455 z m 29.986419,-40.97066 c 18.580604,-7.91475 35.458774,-28.71103 36.422274,-44.87738 0.57911,-9.71665 -2.61658,-14.93024 -11.81528,-19.27601 -4.03882,-1.90807 -6.13975,-2.11583 -20.5,-2.02718 -13.728222,0.0847 -16.840455,0.40483 -21.919275,2.25438 -11.788702,4.29306 -20.116558,11.49437 -24.521451,21.20431 -1.516284,3.34242 -2.020789,6.59213 -2.037312,13.1231 -0.02047,8.09077 0.232828,9.17528 3.728038,15.96185 4.084468,7.93071 10.578313,13.88196 17.197502,15.76057 5.905418,1.67603 16.853399,0.68439 23.445504,-2.12364 z M 737.10212,609.74193 C 741.11131,607.07761 745,599.94135 745,595.24827 c 0,-7.59791 -7.00301,-15.65357 -16.18645,-18.61949 -5.91462,-1.91021 -7.95802,-1.994 -13.19128,-0.54093 -6.20539,1.72299 -8.62629,4.85223 -8.60031,11.1167 0.0394,9.49282 5.76733,18.39137 14.43717,22.42858 6.39022,2.97567 11.27784,3.00967 15.64299,0.1088 z M 212.79005,566.35924 c 3.08987,-0.8277 5.51196,-5.70772 4.6901,-9.44961 -0.81434,-3.70767 -5.41101,-6.30336 -9.5519,-5.39387 -5.93025,1.3025 -7.88157,8.62182 -3.4737,13.02969 2.50852,2.50853 4.2927,2.89676 8.3355,1.81379 z m -99.46233,-49.72281 c 6.33107,-2.64529 9.26308,-10.82351 6.24557,-17.42073 -2.46805,-5.39591 -6.01908,-7.64427 -12.07329,-7.64427 -5.85009,0 -9.602604,2.22001 -11.966924,7.0797 -5.624338,11.56043 5.722864,23.02921 17.794644,17.9853 z m 689.17094,-28.74041 c 5.93675,-1.49489 11.80408,-6.77153 15.16261,-13.63612 5.88087,-12.02007 2.56258,-27.56971 -7.33683,-34.38069 -10.4926,-7.2191 -29.07674,-7.9217 -49.04153,-1.85408 -11.95237,3.63251 -18.66888,8.19337 -20.35536,13.82235 -2.67614,8.93216 7.46179,21.20054 24.46866,29.61065 13.99275,6.91959 26.54187,9.09707 37.10245,6.43789 z M 826.92742,362.36514 C 828.06734,360.91597 829,358.72666 829,357.5 c 0,-1.22666 -0.93266,-3.41597 -2.07258,-4.86514 C 825.32876,350.6025 823.97338,350 821,350 c -2.97338,0 -4.32876,0.6025 -5.92742,2.63486 C 813.93266,354.08403 813,356.27334 813,357.5 c 0,1.22666 0.93266,3.41597 2.07258,4.86514 C 816.67124,364.3975 818.02662,365 821,365 c 2.97338,0 4.32876,-0.6025 5.92742,-2.63486 z m -20.1453,-108.91819 c 21.36523,-8.92476 15.07636,-41.52076 -7.99228,-41.42499 C 786.16317,212.07438 777,221.10644 777,233.5 c 0,15.35888 15.65884,25.84658 29.78212,19.94695 z M 239.65743,180.86582 c 5.04572,-4.71289 7.65622,-10.58838 7.75292,-17.44962 0.08,-5.67834 -0.20786,-6.65888 -2.68308,-9.13852 -2.44567,-2.45004 -3.51644,-2.77768 -9.07784,-2.77768 -5.3658,0 -6.85234,0.41739 -9.97832,2.80169 -4.73394,3.61076 -6.67111,7.45759 -6.67111,13.24752 0,5.67418 2.2222,10.61852 6.32342,14.06948 2.58216,2.17274 3.7943,2.51543 7.44281,2.10419 2.68711,-0.30287 5.32954,-1.39841 6.8912,-2.85706 z m -59.60204,-4.89546 c 2.66806,-1.4279 4.94461,-6.1996 4.94461,-10.364 0,-8.35349 -11.58885,-8.84159 -14.98966,-0.63133 -1.25079,3.01968 -0.75571,6.01281 1.61684,9.77497 1.53242,2.42997 5.18093,2.95825 8.42821,1.22036 z M 492.72984,159.75 c 2.95115,-3.19471 4.3519,-8.95307 2.89079,-11.88376 -2.63795,-5.2912 -10.56921,-4.60903 -14.0033,1.20443 -4.73472,8.01524 4.96369,17.33561 11.11251,10.67933 z M 757.5,127.32468 C 780.70341,120.07766 794.74499,106.31895 801.71543,84 809.36496,59.506656 800.41765,32.108266 781.5198,22.157074 777.22298,19.894462 775.27578,19.516107 768,19.530081 c -7.49981,0.01441 -9.14718,0.365029 -14,2.979743 -25.47938,13.728369 -47.66607,62.613188 -40.55056,89.346646 4.63773,17.42427 20.24288,22.90397 44.05056,15.46821 z m -68.91416,-5.78897 c 6.07154,-3.97822 8.0958,-12.26547 4.45464,-18.23716 -5.11258,-8.384921 -17.96838,-8.384921 -23.08096,0 -7.22559,11.85036 7.04667,25.82444 18.62632,18.23716 z m -434.10666,-8.92398 c 1.31355,-1.31355 2.69964,-4.04799 3.08019,-6.07653 1.44125,-7.682523 -3.71007,-11.586203 -10.4794,-7.941298 -5.69523,3.066568 -6.65785,9.828218 -2.05453,14.431538 2.65949,2.65949 6.55083,2.4892 9.45374,-0.41371 z M 575.97445,77.524951 c 5.83496,-5.69769 10.1819,-14.554942 10.74792,-21.899776 0.40491,-5.254267 0.13546,-6.622823 -1.8951,-9.625175 -7.01378,-10.370449 -24.36661,-8.733129 -32.32246,3.049776 -2.64082,3.911136 -3.00132,5.298185 -2.97599,11.450224 0.0349,8.463431 3.24309,15.729012 8.53948,19.339073 2.81616,1.919518 4.38045,2.26291 8.72112,1.914458 4.49117,-0.360534 5.87731,-0.998684 9.18503,-4.22858 z M 177.88313,50.369307 C 180.23759,48.720177 183,43.384905 183,40.486664 183,37.986231 178.35753,34 175.44545,34 c -1.69302,0 -3.91304,1.267588 -6.16628,3.520833 -3.02023,3.020222 -3.43038,3.973139 -2.88462,6.701926 C 167.18417,48.170844 170.65884,52 173.45181,52 c 1.15675,0 3.15084,-0.733812 4.43132,-1.630693 z M 836.71429,36.714286 c 0.74403,-0.744037 1.61621,-2.97607 1.93817,-4.960074 1.19493,-7.363485 -7.82749,-11.670092 -13.19791,-6.299667 -3.2329,3.232895 -3.19096,7.458806 0.10935,11.019905 2.1771,2.349124 3.10956,2.677947 6.18075,2.179562 1.98926,-0.322813 4.2256,-1.19569 4.96964,-1.939726 z"
         id="path62" />
      <path
         style="fill:#6d30bf"
         d="M 435,950.3757 C 375.48568,944.80315 327.33189,932.25067 283.4332,910.86606 260.67323,899.77887 255.6011,893.97604 255.5798,879 c -0.0139,-9.77568 -0.88242,-6.98531 23.21916,-74.59932 8.25366,-23.15463 15.92888,-43.90704 17.05605,-46.11647 6.55895,-12.85661 17.5295,-17.64247 31.66845,-13.81523 3.5621,0.96421 6.81544,2.25542 6.94536,2.48545 0.17309,0.30646 -1.11743,1.67057 -1.90345,3.04557 -2.10572,3.68356 -0.62823,10.18434 1.7446,14.02366 5.37941,8.70407 16.72689,8.07881 21.31902,-0.80139 2.45871,-4.75461 3.78547,-5.15784 -1.37899,-7.36196 -2.6125,-1.11498 -8.10374,-3.58583 -12.20276,-5.49077 l -7.68623,-3.43553 2.77535,-2.04913 c 1.90737,-1.40827 5.09886,-1.87387 8.62833,-1.87829 4.58,-0.006 5.739,0.42809 8.91182,3.33576 2.72648,2.49863 3.79563,4.40783 4.23532,7.56314 0.24238,1.73935 0.24343,4.25099 0.24343,4.25099 0,0 3.37595,1.25371 7.34474,2.93476 18.58987,7.87407 44.97534,14.73334 69.5,18.06751 18.57103,2.52476 60.36345,3.60979 74.56534,1.93589 25.22918,-2.97363 41.65951,-10.45347 47.37652,-21.56795 3.50133,-6.80697 3.68659,-20.55646 0.37381,-27.74392 -2.72082,-5.90316 -10.08586,-13.86232 -17.47902,-18.88903 -4.784,-3.2527 -34.55348,-18.63268 -38.81482,-20.05313 -1.04901,-0.34967 -6.92923,-2.32696 -5.17205,-4.70367 3.51963,-4.76055 10.26584,-9.26154 8.54871,-20.13694 -1.67365,-10.60001 -3.41555,-17.02903 -0.33171,-26.70647 6.27644,-19.69624 20.59262,-33.53229 35.70845,-39.38547 8.19169,-3.172 23.8078,-3.19918 34.03316,-0.0592 15.24901,4.68257 36.04756,20.33166 48.56165,36.53838 3.44539,4.46204 10.21463,14.08611 15.04276,21.38683 10.39658,15.72087 17.08217,23.32143 24.00844,27.29415 9.7174,5.57365 17.75816,3.15023 22.27376,-6.71314 3.12466,-6.82517 2.80247,-13.31349 -1.06729,-21.4935 -3.63132,-7.67598 -8.66014,-12.028 -20.62771,-17.85156 -5.775,-2.81018 -12.03357,-5.87454 -13.90792,-6.8097 -8.37707,-4.17948 -17.90365,-16.5294 -19.4392,-25.20028 -0.93933,-5.30419 0.68368,-6.75933 9.96748,-8.93649 5.93859,-1.39268 9.6394,-4.81325 13.93942,-12.88388 1.55907,-2.9262 3.62014,-5.74074 4.58015,-6.25452 1.08659,-0.58152 4.33815,-0.56643 8.61387,0.04 6.23284,0.88398 16.42192,0.19254 17.82401,-1.20955 0.6793,-0.67931 -15.48026,-8.78516 -25.47126,-14.79912 -9.6377,-5.80129 -33.80185,-21.01939 -50.36844,-28.33978 -17.50604,-7.73551 -32.81312,-13.79286 -70.23811,-27.79477 -43.99007,-16.45813 -57.3572,-22.99585 -68.68817,-33.59464 -8.73795,-8.17333 -24.18932,-23.60196 -21.18916,-33.92214 2.9234,-10.05615 19.50378,-27.97787 37.03874,-31.43144 12.97855,-2.55618 64.05045,4.38964 80.22073,6.93869 23.30428,3.67369 38.01297,19.46413 68.4271,32.80805 19.87729,8.72098 21.86231,8.60761 24.56209,5.27351 1.51555,-1.87162 5.02587,-1.52047 10.22994,-1.82644 3.85225,-0.22649 8.50876,-2.09334 8.58317,-1.7002 0.0403,0.21268 -3.04435,2.73139 -3.68068,3.23975 -2.18688,1.74711 -8.33344,3.37892 -11.75376,3.38739 -1.02196,0.002 -3.04469,0.003 -3.04469,0.003 0,0 1.76078,3.6379 5.10779,6.72307 9.62345,8.87059 20.01337,12.90016 43.1869,16.74938 17.84351,2.96388 23.69654,5.23087 27.33907,10.58895 C 741.04706,501.19108 732.98913,516 721.81228,516 716.67233,516 712.42642,513.6629 701,504.54415 c -5.225,-4.16976 -12.71519,-9.19306 -16.64486,-11.16288 -6.91962,-3.46859 -7.44061,-3.57046 -16.52633,-3.23138 -8.217,0.30665 -10.22107,0.76377 -16.1456,3.68269 -8.73368,4.30295 -11.82607,8.61388 -11.82607,16.48608 0,6.30125 1.56744,9.85965 6.30754,14.31939 6.12482,5.76255 9.12922,6.69055 23.83532,7.36217 15.25361,0.69663 18.87457,1.81501 23.71107,7.32349 5.61484,6.39495 6.68861,14.93399 3.2698,26.00281 -1.62885,5.27361 -2.89896,7.31164 -6.57094,10.54385 l -4.55181,4.00666 4.32094,3.72341 c 8.92078,7.68716 25.52192,25.3634 31.00841,33.01653 21.78544,30.38863 32.98608,65.57314 34.50265,108.38303 l 0.28497,15.97543 -5.23938,-4.31582 c -3.21183,-2.64568 -41.70201,-21.80317 -51.06917,-11.26987 -4.81425,5.41358 -9.02633,11.87787 -3.13851,28.38227 5.98207,16.76859 13.05464,26.42032 22.91858,31.27632 5.98729,2.94754 7.11235,1.59169 13.76661,1.15718 7.13103,-0.46564 12.70879,-1.91878 16.85435,-5.56364 0.96587,-0.84921 3.74436,-2.77797 4.10542,-2.41692 1.028,1.02801 -4.07934,24.12227 -7.99656,36.26517 -1.94994,6.04456 -6.83312,17.51956 -10.85152,25.5 -14.72856,29.25051 -32.60961,49.4343 -59.82491,67.52921 -37.5273,24.95114 -82.96208,38.58009 -144.89522,43.46382 -18.07249,1.4251 -77.96119,1.04459 -95.60478,-0.60745 z M 668.75,725.36342 C 673.52026,720.11624 670.03793,712 663.01631,712 c -3.08016,0 -4.36357,0.62398 -6.49609,3.15833 -2.90823,3.45625 -2.80966,6.72705 0.30769,10.2097 3.72448,4.16092 8.13672,4.15922 11.92209,-0.005 z M 539.38512,672.9117 C 544.87082,668.59665 546.57339,661.57339 543,658 c -5.09185,-5.09185 -15,-0.13777 -15,7.5 0,2.70513 0.75897,4.41282 2.92308,6.57692 3.47302,3.47303 4.92586,3.61635 8.46204,0.83478 z m 244.68746,121.45344 c -2.74937,-3.49526 -2.61773,-6.9109 0.38197,-9.91059 C 789.55578,779.35331 798,782.69467 798,789.81445 798,794.25768 794.97455,797 790.07258,797 c -3.05179,0 -4.38951,-0.58745 -6,-2.63486 z M 753.05373,761.4429 c -0.60411,-13.92538 1.03485,-21.99279 1.86564,-22.21779 0.46135,-0.12495 3.15082,4.54095 4.30467,6.21365 1.49436,2.16632 3.25627,6.34843 3.91537,9.29358 1.01311,4.52705 0.9443,6.1608 -0.44514,10.56861 -0.90393,2.86759 -2.91431,6.73601 -4.46751,8.59649 l -4.37416,5.96006 z M 496,764.93272 c -9.82303,-4.11549 -15.53512,-18.84217 -11.5099,-29.67438 2.11728,-5.69777 6.71802,-10.86053 11.5099,-12.91595 6.9814,-2.99458 16.80457,0.0998 22.44671,7.07082 2.85518,3.52766 3.05329,4.31004 3.05329,12.05796 0,7.93632 -0.15699,8.51193 -3.72477,13.65718 -2.04863,2.95441 -5.30636,6.43889 -7.23941,7.74329 -3.95381,2.668 -10.77773,3.63559 -14.53582,2.06108 z m -97.5,-13.81218 c -11.44085,-3.02476 -26.77774,-15.51722 -31.42895,-25.60003 -3.81355,-8.26696 -5.2258,-20.08809 -4.08713,-34.21121 1.27772,-15.84789 7.63782,-49.7024 9.65033,-51.94982 0.40502,-0.45231 5.71653,2.13727 11.69922,5.13335 20.13088,10.08135 42.31988,21.15423 77.90559,33.61004 21.36166,7.47707 38.03765,11.36888 39.21905,12.51116 0.40981,0.39622 -5.41255,3.69869 -9.01155,5.80402 -4.92063,2.87845 -9.34834,6.9597 -17.85175,16.4549 -16.46991,18.39087 -24.04879,24.91649 -37.09481,31.93962 -10.26964,5.52852 -13.68631,6.45551 -25,6.78285 -6.05,0.17505 -12.35,-0.0386 -14,-0.47488 z m 68.93629,-92.53308 c -6.77643,-2.95116 -19.35854,-10.4097 -23.12477,-25.53376 -2.21698,-8.90275 -0.44192,-42.25663 0.12261,-42.82116 0.91045,-0.91045 10.92305,2.91712 15.03924,5.74914 5.83483,4.01446 16.42396,15.64383 20.51517,22.53049 4.97737,8.37833 7.95499,17.80731 7.98564,25.28749 0.0331,8.08343 -1.86392,11.79321 -7.2905,14.25696 -4.89722,2.22341 -8.98481,2.38721 -13.24739,0.53084 z M 51.454545,651.54545 c -3.44104,-3.44104 -3.358558,-8.68919 0.180314,-11.47287 3.887746,-3.0581 7.677336,-2.6787 10.844916,1.08575 3.149988,3.74355 2.807445,7.12422 -1.073188,10.59167 -3.277565,2.92859 -6.89322,2.85428 -9.952042,-0.20455 z M 361.21559,634.97629 c -10.50548,-6.20788 -16.25911,-10.23505 -26.85786,-18.7988 -4.0286,-3.25508 -7.24788,-5.8892 -7.24788,-5.8892 -0.50683,0.36918 -1.94636,2.88687 -3.445,4.9343 -3.64101,4.97427 -9.94494,9.17325 -17.74777,11.82159 -5.15981,1.75128 -7.90076,2.07919 -13.98973,1.67363 -12.3989,-0.82583 -20.4222,-6.00569 -25.12045,-16.21781 -2.00262,-4.3529 -2.29629,-6.55305 -2.26911,-17 0.0226,-8.66857 0.53088,-13.60907 1.83103,-17.79594 2.522,-8.12161 1.68743,-8.84957 -13.42924,-11.71364 -10.32408,-1.95605 -15.95414,-9.52648 -15.92876,-21.41856 0.0168,-7.85267 2.01118,-13.40929 8.80048,-24.51889 2.16966,-3.55029 1.58865,-6.05297 -1.40523,-6.05297 -3.10733,0 -12.85248,5.33945 -27.40607,15.01602 -8.525,5.66821 -18.875,11.92092 -23,13.89491 -6.80522,3.25659 -8.29432,3.58907 -16.07453,3.58907 -7.8019,0 -8.89805,-0.24654 -12.16497,-2.73604 C 161.0266,540.15657 156,530.13297 156,524.30044 c 0,-8.16649 6.15943,-16.33811 17.49201,-23.20637 6.08201,-3.68609 20.90259,-9.42793 37.62693,-14.57757 13.31944,-4.10122 22.72001,-9.00982 31.64904,-16.52583 21.21932,-17.86139 26.3986,-39.38418 15.15167,-62.9636 -3.32801,-6.97724 -5.57527,-9.98763 -12.73054,-17.05356 -7.30933,-7.21808 -9.90873,-9.08821 -16.36959,-11.77707 -9.06565,-3.77291 -12.18299,-3.91833 -32.97097,-1.53805 -13.68427,1.56689 -15.10355,1.5676 -21.5,0.0109 -12.04779,-2.93216 -20.8835,-7.99022 -30.00168,-17.17468 -12.98724,-13.08164 -19.30089,-28.33183 -19.33209,-46.69534 -0.0179,-10.54036 1.31233,-17.26834 5.0576,-25.58006 5.49836,-12.20226 15.16137,-21.80445 28.42762,-28.24869 17.62999,-8.56398 37.09051,-7.72098 59.02227,2.55678 7.88832,3.69666 14.48164,8.22525 28.97773,19.90321 17.99829,14.49931 29.62813,19.62312 36.48809,16.0757 3.75039,-1.9394 6.44805,-7.57548 5.61635,-11.73397 -1.88707,-9.43541 -15.93184,-21.38839 -40.60444,-34.557 -11.22068,-5.98886 -17.50868,-7.74313 -33,-9.20655 -24.40428,-2.30542 -29.6591,-3.80542 -35.63138,-10.17106 -6.01748,-6.41382 -6.66491,-14.28794 -2.00227,-24.35176 3.21977,-6.94955 8.20638,-10.99478 16.75374,-13.59097 6.24779,-1.8977 7.74636,-2.01926 12.30816,-0.99837 7.95624,1.78053 11.756,4.91676 15.48356,12.77976 5.30066,11.18133 14.86378,19.67826 31.58819,28.06643 14.50578,7.27541 23.5356,9.75728 35.5,9.75728 9.59034,0 15.03394,-0.79939 13.80594,-2.02739 -0.26417,-0.26418 -3.14108,-0.94982 -6.39313,-1.52366 -8.19503,-1.44606 -13.19429,-3.53862 -18.15719,-7.60014 -13.66667,-11.18448 -16.50877,-36.51514 -5.53539,-49.33506 2.76126,-3.22591 4.2883,-4.06431 9.05073,-4.96917 10.47504,-1.99024 13.28113,-3.05085 14.14999,-5.34825 0.45686,-1.20798 1.35471,-7.59633 1.99523,-14.19633 3.21647,-33.14278 13.71621,-51.52994 35.58382,-62.314414 5.67928,-2.800855 8.98192,-3.686315 22.89059,-6.137107 4.42214,-0.77921 7.02102,-1.974094 10.42528,-4.793219 9.61668,-7.963744 12.2149,-9.246366 18.73985,-9.250979 10.20017,-0.0072 12.97857,2.89119 25.37003,26.465819 18.61444,35.41381 19.26844,37.37099 17.30286,51.78163 -1.09653,8.03913 -1.05676,8.38547 1.56816,13.6593 1.48127,2.97607 5.70846,8.63973 9.39377,12.58592 7.76366,8.31325 15.42906,12.60911 26.74788,14.9901 8.38168,1.76314 14.71301,1.06294 29.06158,-3.21399 6.88395,-2.05193 9.28614,-3.31751 12.63488,-6.65665 2.2961,-2.28951 4.67294,-5.90034 5.34482,-8.11971 0.66547,-2.19818 1.61695,-12.48108 2.11441,-22.85088 1.30596,-27.22355 3.06124,-30.42589 16.079,-29.33453 6.77623,0.5681 6.8217,0.55506 7.39189,-2.11984 1.97003,-9.24202 6.96073,-19.65433 10.10774,-21.0882 5.4578,-2.486743 12.63288,-0.28835 16.4286,5.03361 2.13966,3 2.39272,4.38891 2.34365,12.86314 -0.0573,9.88928 -1.80925,17.12287 -7.75043,32 C 553.82313,166.70249 547,195.46224 547,205.50804 c 0,5.91094 0.9207,8.53259 4.29928,12.24196 4.30101,4.72211 10.40161,1.25068 14.97424,-8.52081 3.00894,-6.42995 3.0174,-6.49836 2.23744,-18.09177 -0.4306,-6.40058 -0.71078,-13.88742 -0.62262,-16.63742 0.21558,-6.7243 3.67075,-13.24395 9.00452,-16.99085 4.05803,-2.85071 4.79228,-3.00731 13.94536,-2.97425 10.40786,0.0376 14.28769,1.33439 21.0721,7.04309 7.15795,6.02302 9.88667,17.07849 6.13046,24.83776 -2.20617,4.55734 -3.38758,5.57802 -16.02373,13.84361 -11.43194,7.47788 -14.32227,15.63144 -7.62548,21.5113 4.81016,4.22337 11.22504,5.51818 21.06189,4.25122 10.44522,-1.34531 16.14255,-4.80101 27.55721,-16.71477 10.90032,-11.37693 13.60393,-16.72257 18.94185,-37.45223 4.70668,-18.27828 6.6425,-23.1851 11.19032,-28.36479 4.64201,-5.28695 9.88356,-7.44142 18.16909,-7.46813 17.23611,-0.0556 31.10629,14.94791 29.3701,31.76988 -1.2795,12.39726 -8.66389,21.49225 -31.6545,38.98733 -19.87768,15.12626 -29.36677,25.06316 -35.50954,37.18533 -2.85457,5.63321 -6.80871,17.92252 -7.79581,24.22906 l -0.57812,3.69356 5.17797,1.66787 c 6.87327,2.21395 32.66053,11.6511 33.55106,12.43927 1.0533,0.93221 -17.97378,16.10175 -24.27972,18.73964 -13.49415,5.64485 -20.33238,-2.50102 -18.08786,-22.23977 0.63067,-5.54621 3.18297,-10.20516 2.76125,-10.62627 -1.3696,-1.36764 -33.24023,0.73373 -47.61206,-1.76805 C 570.86492,265.61044 562.94741,255.5 519,255.5 c -40.50456,0 -41.90777,0.066 -58.5,2.75383 -9.35,1.5146 -20.15,3.47523 -24,4.35695 -51.87378,11.88003 -84.22248,57.20595 -111.66897,90.01874 -25.83887,30.89084 -44.58871,49.41338 -48.64057,88.23187 -1.61338,15.45693 -0.72043,57.73478 1.47296,69.73875 4.86345,26.61673 8.27229,45.51369 25.38637,68.42451 7.08135,9.47988 22.40783,29.97535 23.97049,29.97535 1.22033,0 1.48867,-5.71818 2.74506,-14.74686 2.8574,-20.53398 10.89396,-32.35651 22.73466,-37.89489 6.18499,-2.89298 9.84473,-2.94949 17.02528,-0.26291 6.7874,2.53949 13.97601,7.74113 16.90096,17.21102 2.35933,7.63862 -0.9115,13.12463 -2.86503,22.37826 -1.53866,7.28847 -8.96781,45.11436 -9.55323,45.69979 -0.19273,0.19272 -7.66422,-3.3778 -12.79239,-6.40812 z M 67.947502,612.90298 C 61.328313,611.02437 54.834468,605.07312 50.75,597.14241 c -3.49521,-6.78657 -3.748508,-7.87108 -3.728038,-15.96185 0.01652,-6.53097 0.521028,-9.78068 2.037312,-13.1231 4.404893,-9.70994 12.732749,-16.91125 24.521451,-21.20431 5.07882,-1.84955 8.191053,-2.16964 21.919275,-2.25438 14.36025,-0.0886 16.46118,0.11911 20.5,2.02718 9.1987,4.34577 12.39439,9.55936 11.81528,19.27601 -0.9635,16.16635 -17.84167,36.96263 -36.422274,44.87738 -6.592105,2.80803 -17.540086,3.79967 -23.445504,2.12364 z m 653.511628,-3.26985 c -8.66984,-4.03721 -14.3978,-12.93576 -14.43717,-22.42858 -0.026,-6.26447 2.39492,-9.39371 8.60031,-11.1167 5.23326,-1.45307 7.27666,-1.36928 13.19128,0.54093 C 737.99699,579.5947 745,587.65036 745,595.24827 c 0,4.69308 -3.88869,11.82934 -7.89788,14.49366 -4.36515,2.90087 -9.25277,2.86687 -15.64299,-0.1088 z M 204.45455,564.54545 c -4.40787,-4.40787 -2.45655,-11.72719 3.4737,-13.02969 4.14089,-0.90949 8.73756,1.6862 9.5519,5.39387 1.74641,7.95136 -7.3674,13.29403 -13.0256,7.63582 z M 101.40051,516.57241 c -6.303985,-2.7443 -9.098553,-11.27994 -5.867434,-17.92128 2.36432,-4.85969 6.116834,-7.0797 11.966924,-7.0797 6.05421,0 9.60524,2.24836 12.07329,7.64427 5.23788,11.45164 -6.33876,22.50842 -18.17278,17.35671 z M 780.5,487.39672 c -3.3,-0.79016 -10.09671,-3.46252 -15.10379,-5.93859 -17.00687,-8.41011 -27.1448,-20.67849 -24.46866,-29.61065 2.84702,-9.5025 24.65932,-17.86776 46.50611,-17.83561 15.68769,0.0231 25.32754,4.71285 30.21312,14.69862 5.66443,11.57767 2.74823,26.51573 -6.76625,34.65978 -6.56714,5.62123 -17.60858,7.08459 -30.38053,4.02645 z m -87.09513,-31.36728 c -3.90232,-1.02325 -9.22366,-2.17964 -11.82519,-2.56976 l -6.4997,-0.64329 1.71386,-4.42386 c 3.48456,-8.99445 10.03121,-9.40268 5.28068,-9.40268 -4.39895,0 -10.8887,-4.10735 -14.49571,-7.61043 -5.67882,-5.5152 -8.00174,-10.83594 -8.02408,-18.37942 -0.0227,-7.66158 2.77943,-13.28799 9.87524,-19.82869 7.8861,-7.26915 11.7629,-12.80412 26.21156,-11.77517 l 11.04213,0.78636 4.20428,-18.48132 c 7.55495,-33.21029 15.77112,-39.98391 12.78661,-50.08516 -2.55688,-8.65392 -14.51587,-16.52606 -34.53204,-24.04656 -2.6125,-0.98157 -5.05766,-3.13266 -5.05766,-3.55739 0,-0.0325 -0.42841,0.10697 -0.40782,0.0637 0.83469,-1.75467 18.71284,-12.37805 26.82297,-16.16421 12.57032,-5.86838 20.14966,-8.04803 30,-8.62734 15.7606,-0.92691 25.89452,2.974 35.95477,13.84027 14.52929,15.69337 20.92155,42.23402 15.55911,64.6014 -8.93307,37.26094 -38.87396,58.69791 -68.04899,48.72149 -4.10569,-1.40395 -9.62659,-3.16959 -12.26866,-3.92367 -2.53547,-0.72366 -4.91542,-1.0234 -4.91542,-1.0234 0,0 -0.35255,0.88029 -0.71007,1.82602 -2.49316,6.59508 -17.96355,49.52234 -18.53238,51.42367 -0.23248,0.77707 -0.79133,1.99291 -0.79133,1.99291 0,0 0.78113,0.0417 1.13103,0.0719 1.31697,0.11389 4.21964,0.18518 9.89956,0.18518 13.0861,0 14.22238,0.70899 14.22238,8.8742 0,4.2054 -0.47584,5.69255 -2.45455,7.67125 -2.97215,2.97216 -6.27391,3.07116 -16.14058,0.48399 z m 121.66771,-93.6643 C 813.93266,360.91597 813,358.72666 813,357.5 c 0,-1.22666 0.93266,-3.41597 2.07258,-4.86514 C 816.67124,350.6025 818.02662,350 821,350 c 2.97338,0 4.32876,0.6025 5.92742,2.63486 1.13992,1.44917 2.07258,3.63848 2.07258,4.86514 0,1.22666 -0.93266,3.41597 -2.07258,4.86514 C 825.32876,364.3975 823.97338,365 821,365 c -2.97338,0 -4.32876,-0.6025 -5.92742,-2.63486 z M 790,253.4057 c -13.92317,-6.03081 -17.55344,-25.11919 -6.74914,-35.48784 6.03447,-5.79115 17.44926,-7.65622 24.53898,-4.00944 20.54802,10.5694 13.44465,41.2403 -9.50772,41.05244 C 795.65195,254.93933 791.925,254.23951 790,253.4057 Z M 225.32342,181.61869 C 221.2222,178.16773 219,173.22339 219,167.54921 c 0,-5.78993 1.93717,-9.63676 6.67111,-13.24752 3.12598,-2.3843 4.61252,-2.80169 9.97832,-2.80169 5.5614,0 6.63217,0.32764 9.07784,2.77768 2.47522,2.47964 2.76311,3.46018 2.68308,9.13852 -0.1478,10.48679 -6.57337,19.39699 -14.64412,20.30668 -3.64851,0.41124 -4.86065,0.0685 -7.44281,-2.10419 z M 171.62718,174.75 c -2.37255,-3.76216 -2.86763,-6.75529 -1.61684,-9.77497 3.40081,-8.21026 14.98966,-7.72216 14.98966,0.63133 0,4.1644 -2.27655,8.9361 -4.94461,10.364 -3.24728,1.73789 -6.89579,1.20961 -8.42821,-1.22036 z m 311.47464,-14.64818 c -2.93366,-2.93366 -3.55229,-7.53065 -1.48449,-11.03115 5.19445,-8.79351 16.79337,-4.88407 14.1787,4.77896 -2.00218,7.39949 -8.39722,10.54918 -12.69421,6.25219 z M 732.5,130.06085 c -6.1299,-1.05701 -12.22559,-4.68907 -15.06131,-8.97413 C 708.50094,107.58087 710.93781,83.073347 723.76135,57.5 731.51698,42.033326 743.50017,28.167166 754,22.509824 c 4.85282,-2.614714 6.50019,-2.965338 14,-2.979743 7.27578,-0.01397 9.22298,0.364381 13.5198,2.626993 18.89785,9.951192 27.84516,37.349582 20.19563,61.842926 -5.1955,16.63569 -15.9632,30.34781 -29.21543,37.20436 -13.51772,6.99391 -29.84145,10.60819 -40,8.85649 z m -57.62425,-8.15322 c -6.47212,-3.85195 -8.72184,-12.36767 -4.91623,-18.60908 5.11258,-8.384921 17.96838,-8.384921 23.08096,0 6.99024,11.46437 -6.66477,25.45341 -18.16473,18.60908 z m -429.85031,-8.88219 c -4.60332,-4.60332 -3.6407,-11.36497 2.05453,-14.431538 6.76933,-3.644905 11.92065,0.258775 10.4794,7.941298 -1.35638,7.23014 -8.23315,10.79102 -12.53393,6.49024 z M 558.0683,79.839073 C 552.77191,76.229012 549.56367,68.963431 549.52882,60.5 c -0.0253,-6.152039 0.33517,-7.539088 2.97599,-11.450224 C 560.46066,37.266871 577.81349,35.629551 584.82727,46 c 2.03056,3.002352 2.30001,4.370908 1.8951,9.625175 -0.56602,7.344834 -4.91296,16.202086 -10.74792,21.899776 -3.30772,3.229896 -4.69386,3.868046 -9.18503,4.22858 -4.34067,0.348452 -5.90496,0.0051 -8.72112,-1.914458 z M 169.1897,49.701925 c -1.18741,-1.263941 -2.44523,-3.729566 -2.79515,-5.479166 -0.54576,-2.728787 -0.13561,-3.681704 2.88462,-6.701926 4.22306,-4.223066 7.77348,-4.559092 11.26628,-1.066288 2.82239,2.822384 2.99843,4.308004 1.06018,8.946881 -2.66723,6.383588 -8.54603,8.419823 -12.41593,4.300499 z M 825.5639,36.47445 c -7.26662,-7.840819 3.54415,-18.45731 11.10048,-10.900984 2.13237,2.132378 2.47313,3.191747 1.98808,6.180746 -0.73853,4.551019 -2.34946,6.160081 -6.90781,6.8998 -3.07119,0.498385 -4.00365,0.169562 -6.18075,-2.179562 z"
         id="path60"
         sodipodi:nodetypes="sssssssssssscscsscsssssssssssssssssssssssssssssssssssssccsssssssssssssscssscsssssssssssscsssccsssssssssssssssscssssssssscsssssssssscsssssssssssssssssssssssssssssssssssssscssssssssssssssssssssssssssssssssssssssssssssssssssssssssssssssscsssssssssssssssssssssssssssssssssssssssssssssssssssssssscsssssscssssssssssscsscssssssssssssssscssscsssssscssssssssssssssssssssssssssssssssssssssssssssss" />
    </g>
    <path
       style="fill:#ffffff"
       d="m 719.18646,784.97353 c -9.65213,-4.88166 -16.76145,-14.67146 -22.65843,-31.20152 -5.88782,-16.5044 -6.53564,-29.73029 -1.72139,-35.14387 9.35834,-10.52338 36.25863,-2.32533 56.44336,17.2015 l 4.75,4.59518 -0.0435,15.03759 c -0.0374,12.93828 -1.50819,23.4588 -1.6933,23.82959 -0.15543,0.31131 -4.32439,3.05248 -8.76315,5.39582 -3.73636,1.97252 -6.89546,2.74567 -12.5,3.05923 -6.88186,0.38503 -8.02035,0.15644 -13.81354,-2.77352 z M 338.25623,769.35534 c -6.4982,-3.20348 -9.26455,-12.571 -5.73055,-19.405 0.83912,-1.62269 1.70176,-3.04372 1.90555,-3.04372 0.20379,0 3.67039,1.63082 7.71498,3.50992 4.04458,1.87909 9.49129,4.32879 12.10379,5.44377 2.40237,1.0253 4.10568,1.87611 4.86242,2.28733 0,0 0.21603,3.16384 -2.07194,6.55381 -3.92155,5.81036 -11.92492,8.03541 -18.78425,4.65389 z M 660.5,728.04532 c -2.75876,-1.11628 -5.2203,-4.04879 -5.99076,-7.13699 -0.48746,-1.95389 0.007,-3.36888 2.01098,-5.75 5.15065,-6.12119 14.47978,-2.9508 14.47978,4.92076 0,5.14883 -6.07403,9.75712 -10.5,7.96623 z M 491.53298,688.90611 c -3.83186,-1.62768 -16.43186,-6.28035 -28,-10.33927 -26.4085,-9.26597 -39.56509,-14.26211 -56.03298,-21.27816 -10.73875,-4.57518 -34.0906,-15.69202 -35.33532,-16.82167 -0.18443,-0.16738 2.13784,-9.45343 5.16059,-20.63567 8.70091,-32.1877 9.14472,-35.86138 5.68547,-47.06114 -2.92495,-9.46989 -6.69806,-14.13537 -13.48546,-16.67486 -7.18055,-2.68658 -10.84029,-2.63007 -17.02528,0.26291 -11.8407,5.53838 -18.64473,17.60777 -21.50213,38.14175 -1.25639,9.02868 -3.92771,15.94409 -3.92771,15.94409 0,0 -19.4115,-20.96421 -26.49285,-30.44409 -17.11408,-22.91082 -27.30796,-45.88327 -32.17141,-72.5 -2.19339,-12.00397 -3.08634,-54.28182 -1.47296,-69.73875 4.05186,-38.81849 19.17085,-74.0781 45.00972,-104.96894 27.44649,-32.81279 72.68356,-58.3015 124.55734,-70.18153 3.85,-0.88172 14.65,-2.84235 24,-4.35695 16.59223,-2.68778 17.99544,-2.75383 58.5,-2.75383 43.94741,0 53.71022,0.62849 79.5,5.11786 14.13566,2.46067 45.4242,10.55249 46.64031,11.28034 0,0 -0.70302,5.80885 -1.31909,12.12248 -0.9701,9.94188 -0.90804,11.9768 0.46343,15.19373 2.02593,4.75205 5.18361,5.63367 12.22645,3.41361 5.21208,-1.64296 6.41312,-2.34715 20.11694,-11.79494 l 7.12805,-4.91426 11.85935,5.08868 C 719.45062,301.23484 726,308.18559 726,323.25415 726,329.97432 723.16514,339.74249 714.175,364 l -7.39419,19.50031 -9.87148,-0.36094 c -14.47557,-0.52928 -19.59326,2.76279 -27.47936,10.03194 -7.09581,6.5407 -9.89792,12.16711 -9.87524,19.82869 0.0223,7.54348 2.34526,12.86422 8.02408,18.37942 3.60701,3.50308 10.52632,6.32176 15.09336,6.9194 0.32042,0.0419 0.71655,0.039 4.08869,0.44035 0,0 -2.64611,5.08972 -3.54536,6.36679 -3.69961,5.25404 -7.15313,7.80367 -7.15313,7.80367 -0.64365,-0.007 -2.86758,0.074 -6.44599,0.28885 -5.70598,0.34261 -7.99945,1.34882 -9.30366,2.20503 -0.81394,0.53435 -1.29422,1.43435 -1.11367,2.61728 0,0 -2.75009,-0.16167 -5.00866,-0.68855 -3.80387,-0.88737 -9.84321,-3.30778 -19.88115,-7.71183 -30.41413,-13.34392 -47.10113,-18.63025 -70.40541,-22.30394 -16.17028,-2.54908 -58.42528,-2.53881 -71.40383,0.0174 -17.53496,3.45357 -28.23949,10.52233 -31.16289,20.57848 -3.00016,10.32018 -0.26323,19.14157 8.47472,27.3149 11.33097,10.59879 24.6981,17.13651 68.68817,33.59464 37.42499,14.00191 52.73207,20.05926 70.23811,27.79477 16.56659,7.32039 42.52679,20.31984 52.16449,26.12113 9.991,6.01396 25.22522,16.6416 24.90339,17.12342 -1.14405,1.71283 -12.81935,1.98788 -19.05219,1.1039 -4.27572,-0.6064 -7.52728,-0.62149 -8.61387,-0.04 -0.96001,0.51378 -3.02108,3.32832 -4.58015,6.25452 -4.30002,8.07063 -8.00083,11.4912 -13.93942,12.88388 -9.2838,2.17716 -10.90681,3.6323 -9.96748,8.93649 1.53555,8.67088 11.06213,21.0208 19.4392,25.20028 1.87435,0.93516 8.13292,3.99952 13.90792,6.8097 11.96757,5.82356 16.99639,10.17558 20.62771,17.85156 3.86976,8.18001 4.19195,14.66833 1.06729,21.4935 -4.5156,9.86337 -12.55636,12.28679 -22.27376,6.71314 -6.92627,-3.97272 -13.61186,-11.57328 -24.00844,-27.29415 -4.82813,-7.30072 -11.59737,-16.92479 -15.04276,-21.38683 -12.51409,-16.20672 -33.31264,-31.85581 -48.56165,-36.53838 -10.22536,-3.13994 -25.84147,-3.11276 -34.03316,0.0592 -15.11583,5.85318 -27.29214,20.3957 -33.56858,40.09194 -3.08384,9.67744 -3.48181,15.39999 -1.80816,26 0.99609,6.30868 1.21956,10.96403 0.66523,13.85816 -0.90225,4.71071 -4.75203,8.75735 -6.13855,10.1726 0,0 -4.56033,-1.49697 -8.39219,-3.12465 z m -10.8493,-30.84949 c 5.42658,-2.46375 7.32363,-6.17353 7.2905,-14.25696 -0.0306,-7.48018 -3.00827,-16.90916 -7.98564,-25.28749 -4.09121,-6.88666 -14.68034,-18.51603 -20.51517,-22.53049 -4.11619,-2.83202 -14.12879,-6.65959 -15.03924,-5.74914 -0.56453,0.56453 4.98599,32.36471 7.20297,41.26746 2.61832,10.51441 5.50098,17.30131 9.16828,21.58573 5.93364,6.93212 12.1401,8.48415 19.8783,4.97089 z m 49.05931,14.63105 C 527.57888,670.52357 528,668.20513 528,665.5 c 0,-7.63777 9.90815,-12.59185 15,-7.5 3.57339,3.57339 1.87082,10.59665 -3.61488,14.9117 -3.53618,2.78157 -6.16911,3.249 -9.64213,-0.22403 z"
       id="path58"
       sodipodi:nodetypes="sssscsssssssssssssssscssssssssssscssssssssssssscssscssssssssssssssssssssssssssssssssssssssssssssssssssssss" />
  </g>
</svg>
