<?xml version="1.0" encoding="UTF-8" standalone="no"?>
<svg
   xmlns:dc="http://purl.org/dc/elements/1.1/"
   xmlns:cc="http://creativecommons.org/ns#"
   xmlns:rdf="http://www.w3.org/1999/02/22-rdf-syntax-ns#"
   xmlns:svg="http://www.w3.org/2000/svg"
   xmlns="http://www.w3.org/2000/svg"
   xmlns:sodipodi="http://sodipodi.sourceforge.net/DTD/sodipodi-0.dtd"
   xmlns:inkscape="http://www.inkscape.org/namespaces/inkscape"
   version="1.1"
   id="svg10"
   width="3480"
   height="1101"
   viewBox="0 0 3480 1101"
   sodipodi:docname="logo_light.svg"
   inkscape:version="1.0.2-2 (e86c870879, 2021-01-15)">
  <metadata
     id="metadata16">
    <rdf:RDF>
      <cc:Work
         rdf:about="">
        <dc:format>image/svg+xml</dc:format>
        <dc:type
           rdf:resource="http://purl.org/dc/dcmitype/StillImage" />
        <dc:title></dc:title>
      </cc:Work>
    </rdf:RDF>
  </metadata>
  <defs
     id="defs14" />
  <sodipodi:namedview
     pagecolor="#ffffff"
     bordercolor="#666666"
     borderopacity="1"
     objecttolerance="10"
     gridtolerance="10"
     guidetolerance="10"
     inkscape:pageopacity="0"
     inkscape:pageshadow="2"
     inkscape:window-width="1920"
     inkscape:window-height="1017"
     id="namedview12"
     showgrid="false"
     inkscape:zoom="0.35355339"
     inkscape:cx="1557.5839"
     inkscape:cy="326.67936"
     inkscape:window-x="-8"
     inkscape:window-y="-8"
     inkscape:window-maximized="1"
     inkscape:current-layer="g32" />
  <g
     inkscape:groupmode="layer"
     inkscape:label="Image"
     id="g18">
    <g
       id="g32">
      <path
         style="fill:#6d31bf;fill-opacity:1"
         d="m 1637.7428,1007.6374 c -4.4785,-4.1504 -5.9975,-8.29641 -5.5596,-15.17372 0.4682,-7.35305 3.6112,-12.29782 9.8349,-15.47291 4.7942,-2.44584 13.8643,-2.40378 12.9887,-0.12209 -0.3174,0.82724 -4.4912,8.33764 -7.6005,17.1354 -3.1094,8.79772 -4.6563,16.68092 -5.058,16.68092 -0.4018,0 -3.2034,-1.7482 -4.6055,-3.0476 z m 208.4659,-2.8763 c -1.2602,-0.607 -5.3095,-2.2079 -5.0925,-2.8012 0.2169,-0.5934 7.5937,-12.26726 12.487,-26.69848 6.6567,-19.63202 6.9245,-27.11645 8.1213,-27.125 2.1762,-0.0155 11.6411,5.75447 14.2232,9.05513 5.496,7.02572 6.6909,18.35375 2.9817,28.2676 -2.5648,6.85508 -10.3249,15.56635 -16.418,18.43045 -4.8885,2.2979 -12.4967,2.7046 -16.3027,0.8715 z m 213.1123,-49.37439 c -1.7927,-0.88408 -3.9144,-3.11733 -4.8652,-5.1211 -4.6107,-9.71631 6.5798,-19.12082 15.5442,-13.06337 6.9939,4.72594 6.1532,15.16448 -1.4781,18.35304 -4.3072,1.79966 -5.2447,1.78248 -9.2009,-0.16857 z M 1672.5957,914 c 1.035,-20.86427 6.912,-53.48549 14.2326,-79 8.519,-29.69128 13.0511,-47.12761 14.6208,-56.25147 1.3125,-7.6285 1.3255,-9.78361 0.1015,-16.79499 -1.478,-8.46616 -6.1767,-19.82049 -9.8635,-23.83502 -1.2029,-1.30982 -4.8871,-3.67196 -8.1871,-5.24921 -16.0634,-7.67757 -33.4719,0.17311 -43.69,19.70278 -4.3861,8.383 -5.2593,11.52954 -8.3583,30.11793 -1.5169,9.09809 -3.3949,16.66169 -5.0566,20.36431 -4.7302,10.54044 -17.3221,20.01983 -30.4829,22.94806 -8.4372,1.87725 -24.1713,0.91077 -30.5041,-1.87375 -9.6767,-4.25482 -17.7554,-15.03097 -20.4386,-27.26287 -1.7874,-8.14824 -0.7997,-25.43964 2.0326,-35.58457 3.1161,-11.16132 2.4415,-11.91109 -13.4257,-14.92104 -13.4407,-2.54965 -18.9953,-6.55286 -22.6628,-16.33314 -4.3934,-11.71575 -1.8231,-26.55312 7.0518,-40.70769 5.0771,-8.09746 5.0656,-10.86164 -0.044,-10.72044 -5.0301,0.13899 -13.3019,4.60935 -33.8075,18.27081 -21.847,14.55511 -28.4531,18.27554 -38.2899,21.56405 -8.7438,2.92312 -18.8708,3.40906 -24.2454,1.16342 -5.4892,-2.29354 -11.0711,-8.13033 -14.6637,-15.33338 -7.9038,-15.84656 -2.5553,-29.55711 16.3676,-41.95777 3.7301,-2.44448 9.3551,-5.59285 12.5,-6.99637 7.7332,-3.45132 30.881,-11.57221 40.7178,-14.28494 10.3516,-2.85472 24.948,-9.74166 33.3426,-15.73192 14.7291,-10.5105 26.7469,-25.6765 31.2347,-39.41708 3.4694,-10.62236 3.302,-26.05993 -0.4052,-37.37571 -8.1187,-24.78102 -30.2783,-46.38366 -52.3076,-50.99278 -6.0249,-1.26058 -8.655,-1.19573 -25.7869,0.63579 -23.0959,2.46913 -32.2176,2.13822 -43.0628,-1.56221 -27.5081,-9.38586 -48.5283,-33.66538 -55.0895,-63.63145 -2.3717,-10.83191 -2.1422,-28.32446 0.5037,-38.39133 4.1374,-15.74182 12.4805,-28.90272 24.7246,-39.00221 22.2634,-18.36394 50.5355,-23.16724 79.5579,-13.51654 17.2996,5.75257 28.0988,12.331 52.2885,31.85188 18.3944,14.84413 31.9728,22.33447 40.7166,22.46086 6.3917,0.0924 9.9231,-1.78765 12.4172,-6.61076 7.037,-13.60797 -8.5192,-30.67237 -48.0841,-52.74616 -7.1226,-3.97383 -14.7726,-7.86818 -17,-8.65413 -5.9525,-2.10041 -26.1742,-5.18426 -41.0497,-6.26015 -15.1244,-1.0939 -24.4705,-3.65148 -30.6965,-8.40015 -10.6966,-8.15857 -13.168,-18.61312 -7.795,-32.97383 3.2345,-8.64489 7.5685,-13.69017 15.0362,-17.50377 12.9256,-6.60086 25.7222,-6.55899 35.6838,0.11676 3.9813,2.66805 5.5,4.69271 9.4307,12.57252 7.4738,14.98291 18.9663,25.16119 40.7023,36.04805 21.2035,10.62015 40.8496,15.3913 54.2584,13.17689 9.6636,-1.59592 11.4642,-2.69753 5.798,-3.54738 -14.3234,-2.14834 -22.2514,-5.36695 -29.6874,-12.05259 -15.4354,-13.87774 -19.3101,-43.0655 -8.0632,-60.73892 3.982,-6.25732 7.9867,-8.54872 18.0039,-10.30148 14.5222,-2.54101 15.2219,-3.24923 16.2798,-16.47691 1.1014,-13.77186 3.7581,-30.41304 6.2163,-38.93836 5.1753,-17.9486 15.9585,-33.73236 29.7049,-43.4804 12.324,-8.73937 22.2811,-12.47291 37.6278,-14.10913 8.6647,-0.92381 11.1408,-2.06927 20.1595,-9.32589 9.4892,-7.63518 14.7441,-10.09566 21.6226,-10.12426 12.6299,-0.0525 18.0145,5.47808 32.6665,33.55196 6.0068,11.50934 13.2717,25.48976 16.1441,31.06759 6.4379,12.50142 8.9609,22.69145 7.9798,32.22915 -1.8862,18.33758 -1.9022,17.56174 0.4566,22.20789 10.5305,20.74285 27.4676,33.55644 49.414,37.38357 9.7507,1.70037 17.5514,0.79294 33.8927,-3.94258 11.3124,-3.2782 15.4534,-5.43693 19.926,-10.38754 5.6638,-6.26917 6.7851,-11.55781 7.8163,-36.86533 1.1945,-29.31376 2.5904,-35.26455 9.2204,-39.30715 3.5464,-2.16232 10.9854,-2.59888 16.6419,-0.97662 1.8849,0.54059 3.5594,0.85065 3.721,0.68903 0.1616,-0.16163 1.4442,-4.26348 2.8502,-9.11522 3.4333,-11.8477 7.2822,-19.45953 10.9797,-21.71443 6.1781,-3.76762 16.9512,-1.1414 21.7367,5.29887 7.1052,9.56218 6.4107,24.04519 -2.3429,48.85885 -2.2312,6.325 -5.631,16 -7.5549,21.5 -4.6329,13.24435 -9.8523,35.15409 -11.9112,50 -1.3645,9.83921 -1.4459,12.79942 -0.452,16.4396 1.4864,5.44371 6.783,11.0604 10.4301,11.0604 6.3663,0 16.1504,-14.21555 17.2735,-25.097 0.3083,-2.98719 -0.1626,-11.04989 -1.0464,-17.91712 -2.8334,-22.01453 0.9808,-33.04563 13.7561,-39.78504 4.6376,-2.44654 6.1084,-2.69785 15.6197,-2.66911 13.3502,0.0403 19.5071,2.26584 27.9863,10.11608 7.0563,6.53284 10.0137,13.15718 10.0137,22.42954 0,10.82487 -4.2126,16.31054 -19.5,25.39317 -13.2577,7.87675 -17.6287,13.08843 -17.7508,21.16506 -0.054,3.55984 0.501,5.02873 2.842,7.52392 5.0884,5.42372 10.5835,7.23318 21.4769,7.07203 12.9596,-0.19172 18.1132,-1.53364 25.9833,-6.76568 8.0244,-5.33464 21.5187,-18.60362 27.6321,-27.17078 5.751,-8.05934 8.4285,-15.07816 13.4501,-35.25858 6.6223,-26.61308 9.9246,-34.3684 17.447,-40.97314 8.62,-7.56844 20.2489,-9.82865 32.0799,-6.23509 16.3066,4.95298 27.2079,18.22505 28.1375,34.25672 1.162,20.03877 -7.7496,31.93708 -45.3954,60.6099 -16.9738,12.92804 -30.3659,25.92822 -36.8793,35.80013 -9.9078,15.0165 -16.7858,39.22845 -19.0979,67.22894 l -0.545,8.65973 -69.8365,-0.15973 -69.7024,0.27605 -4.8612,3.00596 c -3.1631,1.95592 -6.3393,5.21223 -9.0926,9.32183 -7.9772,11.90677 -60.9032,129.8332 -89.573,199.58098 -38.8326,94.47194 -55.2119,136.64613 -92.8569,239.09123 -14.9558,40.7 -27.9525,80.06071 -28.6924,81.98571 -1.2233,3.18264 -1.1433,-1.93779 -0.6697,-11.48571 z M 1356,747.69695 c 0.3125,-18.50401 -2.6605,-25.92136 -1.8987,-26.96704 0.2357,-0.32355 3.2673,1.29946 3.6562,1.50911 4.6576,2.51075 8.9404,10.27763 9.8693,17.05508 1.0831,7.90193 -2.9234,21.36203 -9.0364,30.35805 l -3.0323,4.20987 z m 565,17.96597 c 0,-2.17868 46.4415,-126.05566 48.916,-130.47724 0.7056,-1.26089 1.0288,-1.15734 1.9893,0.63735 3.4368,6.42175 49.0947,127.44193 49.0947,130.12976 0,0.71565 -15.8307,1.04721 -50,1.04721 -41.07,0 -50,-0.2388 -50,-1.33708 z m -452.6469,-20.58926 c -4.1894,-2.55454 -5.9518,-7.72962 -4.3181,-12.67967 0.9336,-2.82874 2.1358,-4.02435 5.5775,-5.5468 4.3473,-1.923 4.4281,-1.92281 8.8218,0.0207 3.6666,1.62188 4.6388,2.64392 5.6152,5.90293 1.0009,3.34079 0.9142,4.50343 -0.5692,7.62934 -2.9792,6.2783 -9.2952,8.22959 -15.1272,4.67347 z M 1356.0856,665 c 0.037,-5.6672 0.3414,-7.83346 0.9144,-6.5 1.1827,2.75232 1.1827,11.66988 0,13.5 -0.6655,1.02977 -0.9521,-1.16465 -0.9144,-7 z m 859.1485,-22.49961 c -17.0132,-5.13514 -30.6247,-12.98706 -40.5478,-23.3904 -11.5855,-12.14617 -12.9484,-23.63983 -3.6645,-30.90158 12.9956,-10.16484 42.6061,-17.21386 63.4394,-15.10221 16.3045,1.65262 26.5827,8.08042 32.1296,20.09332 2.5803,5.58821 2.9048,7.37446 2.8701,15.80048 -0.031,7.43452 -0.5271,10.72779 -2.2834,15.14709 -2.867,7.21428 -8.5223,13.62507 -15.3221,17.36892 -4.935,2.71714 -6.2581,2.96943 -16.8554,3.21396 -9.8734,0.22782 -12.6692,-0.0875 -19.7659,-2.22958 z M 2153,516.96471 c -2.475,-0.51682 -10.35,-2.932 -17.5,-5.36707 -7.15,-2.43508 -15.7,-4.72841 -19,-5.09629 l -6,-0.66887 -21.9286,-48.42022 c -12.0607,-26.63112 -23.178,-50.30756 -24.7052,-52.61432 l -3.1118,-3.89242 4.2694,-2.64779 c 2.1411,-1.32785 13.2812,-8.85072 24.7052,-16.80084 22.3159,-15.52985 38.2427,-24.21872 54.271,-29.60747 8.1367,-2.73559 11.3012,-3.25704 22.0517,-3.63374 7.5905,-0.26597 14.809,0.0288 18.2626,0.74576 22.3182,4.63325 40.7255,26.37798 48.7641,57.6056 2.8405,11.03454 3.0342,27.49708 0.4812,40.90834 -6.1514,32.3148 -28.8321,60.0935 -55.4524,67.91678 -6.8479,2.01249 -19.2733,2.79073 -25.1072,1.57255 z M 2264.7751,482.4412 C 2261.3233,480.56794 2260,478.09017 2260,473.5 c 0,-4.67613 1.3495,-7.11228 4.98,-8.98965 8.4669,-4.37844 17.3087,1.80652 15.6004,10.9127 -1.3149,7.00909 -9.2936,10.55192 -15.8053,7.01815 z M 2229,337.98158 c -16.0563,-7.47415 -21.6945,-27.53187 -11.897,-42.32331 9.1317,-13.7864 29.9935,-16.36734 42.6004,-5.27036 6.5088,5.72932 9.2802,12.19407 9.2649,21.61209 -0.019,11.37524 -4.3903,19.23283 -13.7539,24.72025 -6.4015,3.7515 -19.51,4.38223 -26.2144,1.26133 z m -733.6114,-91.88635 c -8.6585,-5.27979 -12.8023,-19.18553 -8.5236,-28.60381 2.0651,-4.54588 7.8994,-10.07723 12.7802,-12.11652 7.5277,-3.14528 17.5099,-0.87771 21.7837,4.94843 3.1154,4.24698 2.8583,14.39875 -0.5501,21.7223 -2.9813,6.40576 -7.9495,12.42244 -11.9776,14.50545 -3.8776,2.00518 -9.8046,1.80523 -13.5126,-0.45585 z m -69.5005,-8.59487 c -3.5007,-1.90256 -5.2616,-6.49453 -4.6321,-12.0792 0.9123,-8.09376 8.1769,-12.93842 15.0778,-10.05507 4.0198,1.67961 5.6662,4.1785 5.6662,8.60029 0,4.51985 -2.2783,9.24855 -5.9408,12.33031 -3.5695,3.00356 -6.2711,3.32328 -10.1711,1.20367 z M 1832.421,218.5728 c -3.4241,-1.48178 -6.4232,-6.7273 -6.4173,-11.22393 0.01,-3.84071 3.2438,-8.90835 6.9024,-10.80032 9.8173,-5.0767 17.9736,3.24942 13.3218,13.59907 -3.4594,7.69684 -8.4513,10.7429 -13.8069,8.42518 z m 317.9437,-41.66186 c -4.9926,-1.44698 -12.5867,-7.06374 -15.428,-11.41094 -4.8119,-7.36223 -6.2041,-12.35207 -6.696,-24 -0.7589,-17.97262 3.122,-34.09974 13.3389,-55.429311 11.7736,-24.579592 26.0225,-41.310264 41.8632,-49.154514 8.6801,-4.298339 9.1734,-4.415799 18.4876,-4.402102 8.4936,0.01249 10.2442,0.339806 15.5696,2.911042 12.3144,5.945726 23.8504,20.904624 28.977,37.574885 2.6054,8.472005 3.1324,25.866612 1.0922,36.05177 -3.3863,16.90526 -11.233,31.55178 -23.6728,44.18695 -7.7473,7.86899 -9.7489,9.28947 -20.1119,14.27258 -15.1119,7.26661 -27.8293,10.5188 -40.6627,10.39851 -5.292,-0.0496 -11.0327,-0.49909 -12.7571,-0.99887 z m -70.1851,-9.5927 c -5.4221,-2.67194 -8.5006,-7.60737 -8.9932,-14.41833 -0.5129,-7.09093 0.8612,-10.85655 5.4237,-14.86243 8.1721,-7.17522 20.0524,-5.72771 26.7633,3.26087 1.294,1.73309 2.1492,4.77841 2.4292,8.64998 0.3688,5.0974 0.05,6.62781 -2.171,10.41739 -4.4986,7.67627 -15.4156,10.9127 -23.452,6.95252 z M 1520.75,156.91989 c -4.0736,-2.37261 -5.9689,-10.58383 -3.7749,-16.35433 1.1984,-3.15218 6.5554,-6.55679 10.3246,-6.56182 3.4754,-0.005 8.2514,2.38416 9.0791,4.54106 1.9774,5.1531 -0.9962,14.67297 -5.5879,17.88912 -2.5292,1.77153 -7.4268,2.00856 -10.0409,0.48597 z m 407.9824,-43.99698 c -7.7112,-4.07037 -12.7407,-14.686463 -12.7226,-26.854411 0.017,-11.201781 5.3792,-19.536746 16.268,-25.285222 3.3499,-1.768483 5.9081,-2.234609 12.3823,-2.25614 7.4774,-0.02487 8.5156,0.223807 12.4109,2.972863 6.088,4.296532 8.4575,9.377426 8.3092,17.817234 -0.1025,5.828781 -0.7116,8.011478 -4.2012,15.053776 -4.6679,9.42016 -10.5789,16.64182 -15.5538,19.00257 -4.6452,2.20426 -12.2473,2.00145 -16.8928,-0.45067 z M 1422.2168,74.439296 c -4.688,-3.283589 -6.4949,-10.355086 -3.9375,-15.409281 C 1419.9655,55.69758 1425.6573,52 1429.1008,52 c 8.61,0 12.0431,6.682897 8.0029,15.578599 -3.3769,7.435178 -9.8245,10.406565 -14.8869,6.860697 z m 855.8933,-16.834803 c -5.774,-3.200285 -6.9208,-11.947601 -2.187,-16.681416 5.7683,-5.768308 16.2169,-3.023934 17.6541,4.636919 1.6939,9.028842 -7.7041,16.347192 -15.4671,12.044497 z"
         id="path36"
         sodipodi:nodetypes="sssssssssssssssssssssssssssssssssssssssssssssssssssssssssssssssssssssssssssssssscsssssssssssssssssssssssssssssssssscccsssssssssssscssssssssssssssscsscssssssssssssscsscssssssssssssssssscsssssssssssssssscssssssssssssssssssssssssscsssssssssssssssssssss" />
      <path
         style="fill:#6d31bf"
         d="M 212,1073.3757 C 152.48568,1067.8032 104.33189,1055.2507 60.433198,1033.8661 37.673228,1022.7789 32.601105,1016.976 32.579797,1002 c -0.01391,-9.77568 -0.882415,-6.98531 23.219161,-74.59932 8.253659,-23.15463 15.928881,-43.90704 17.056049,-46.11647 8.43703,-16.53795 23.033239,-19.41592 44.259193,-8.7267 10.56326,5.31957 34.28609,14.87078 46.65875,18.78558 15.15723,4.79587 31.72808,8.43665 49.22705,10.81566 18.57103,2.52476 60.36345,3.60979 74.56534,1.93589 25.22918,-2.97363 41.65951,-10.45347 47.37652,-21.56795 2.18965,-4.25693 2.55741,-6.27354 2.55309,-14 -0.006,-10.88911 -1.94597,-15.88388 -9.17422,-23.62175 -6.46482,-6.92062 -13.08717,-11.27172 -30.21307,-19.85101 C 279.53877,815.75177 268.93984,811.45497 233,798.65932 161.09508,773.05902 125.86239,753.91969 96.5,724.5089 65.14422,693.10143 48.007268,658.04784 44.011613,617.14405 c -1.319631,-13.50916 -1.294785,-43.62328 0.04615,-55.93346 6.890022,-63.25251 41.633319,-116.15103 97.058717,-147.77705 27.58134,-15.73807 56.39466,-25.40322 94.38352,-31.66007 18.05759,-2.97413 20.67507,-3.14934 52.7712,-3.5325 69.54692,-0.83025 110.13641,6.1914 167.04617,28.8976 32.17246,12.83636 40.3639,17.61865 44.99154,26.26675 1.81,3.3825 2.17921,5.66003 2.12277,13.09468 -0.0651,8.57523 -0.4029,9.92034 -7.15741,28.5 -3.89901,10.725 -12.3159,33.9 -18.70422,51.5 -6.38831,17.6 -12.67766,34.2658 -13.97633,37.03511 -3.15175,6.7209 -6.83825,10.93608 -12.44912,14.2345 -4.03263,2.37063 -5.69868,2.72615 -12.6446,2.69823 -7.84587,-0.0316 -8.40458,-0.2074 -29,-9.1277 C 365.92403,552.8996 343.80201,548 303.11781,548 c -37.58074,0 -56.80839,5.83204 -63.79951,19.35136 -2.11433,4.08868 -2.78314,13.25234 -1.35308,18.5393 2.34878,8.68349 16.37862,20.42663 34.93986,29.24506 4.67359,2.22042 23.9102,9.82879 42.74801,16.90748 98.28919,36.93416 133.1808,55.43417 164.84691,87.4041 17.4042,17.57119 27.77352,32.89809 36.99931,54.68875 5.30276,12.52474 10.77345,32.14661 13.06594,46.86395 2.19812,14.11145 3.13878,62.28848 1.47926,75.76182 -3.0834,25.03359 -8.99725,44.88268 -19.73503,66.23818 -14.68935,29.21447 -32.58788,49.4202 -59.80948,67.5193 -37.5273,24.9512 -82.96208,38.5801 -144.89522,43.4638 -18.07249,1.4252 -77.96119,1.0446 -95.60478,-0.6074 z m 2289,0 c -59.5143,-5.5725 -107.6681,-18.125 -151.5668,-39.5096 -22.76,-11.0872 -27.8321,-16.8901 -27.8534,-31.8661 -0.014,-9.77568 -0.8824,-6.98531 23.2192,-74.59932 8.2536,-23.15463 15.9288,-43.90704 17.056,-46.11647 8.437,-16.53795 23.0332,-19.41592 44.2592,-8.7267 10.5633,5.31957 34.2861,14.87078 46.6587,18.78558 15.1573,4.79587 31.7281,8.43665 49.2271,10.81566 18.571,2.52476 60.3634,3.60979 74.5653,1.93589 25.2292,-2.97363 41.6595,-10.45347 47.3766,-21.56795 2.1896,-4.25693 2.5574,-6.27354 2.553,-14 -0.01,-10.88911 -1.9459,-15.88388 -9.1742,-23.62175 -6.4648,-6.92062 -13.0871,-11.27172 -30.213,-19.85101 -18.3653,-9.20014 -28.819,-13.43664 -65.1104,-26.38679 -72.1675,-25.75212 -107.1399,-44.7524 -136.4973,-74.15824 -31.3558,-31.40747 -48.4927,-66.46106 -52.4884,-107.36485 -1.3196,-13.50916 -1.2948,-43.62328 0.046,-55.93346 6.89,-63.25251 41.6333,-116.15103 97.0587,-147.77705 27.5813,-15.73807 56.3946,-25.40322 94.3835,-31.66007 18.0576,-2.97413 20.6751,-3.14934 52.7712,-3.5325 69.5469,-0.83025 110.1364,6.1914 167.0462,28.8976 32.1724,12.83636 40.3639,17.61865 44.9915,26.26675 1.81,3.3825 2.1792,5.66003 2.1228,13.09468 -0.065,8.57523 -0.4029,9.92034 -7.1574,28.5 -3.899,10.725 -12.3159,33.9 -18.7042,51.5 -6.3884,17.6 -12.6777,34.2658 -13.9764,37.03511 -3.1517,6.7209 -6.8382,10.93608 -12.4491,14.2345 -4.0326,2.37063 -5.6987,2.72615 -12.6446,2.69823 -7.8459,-0.0316 -8.4046,-0.2074 -29,-9.1277 C 2654.924,552.8996 2632.802,548 2592.1178,548 c -37.5807,0 -56.8084,5.83204 -63.7995,19.35136 -2.1143,4.08868 -2.7831,13.25234 -1.3531,18.5393 2.3488,8.68349 16.3786,20.42663 34.9399,29.24506 4.6736,2.22042 23.9102,9.82879 42.748,16.90748 98.2892,36.93416 133.1808,55.43417 164.8469,87.4041 17.4042,17.57119 27.7735,32.89809 36.9993,54.68875 5.3028,12.52474 10.7735,32.14661 13.066,46.86395 2.1981,14.11145 3.1387,62.28848 1.4792,75.76182 -3.0834,25.03359 -8.9972,44.88268 -19.735,66.23818 -14.6894,29.21447 -32.5879,49.4202 -59.8095,67.5193 -37.5273,24.9512 -82.9621,38.5801 -144.8952,43.4638 -18.0725,1.4252 -77.9612,1.0446 -95.6048,-0.6074 z M 607.19605,1060.1028 C 600.79106,1057.8905 596.46094,1054.0303 593.62,1048 l -2.12,-4.5 -0.30439,-309 c -0.22028,-223.61633 0.002,-310.43029 0.80519,-314.17615 2.79298,-13.02914 12.64672,-19.45341 34.9992,-22.81816 55.93914,-8.42059 111.52566,-12.49401 170.59127,-12.50104 65.46577,-0.008 112.34756,5.20263 152.94965,16.99877 49.41215,14.35572 90.75808,38.03067 115.25638,65.99658 23.6713,27.02187 39.1805,62.23265 45.8085,104 2.5297,15.94106 3.1085,67.37326 0.9454,84 -4.3834,33.69219 -12.8582,60.38994 -27.0266,85.14007 -18.1313,31.673 -44.5007,55.46442 -82.5246,74.45679 C 951.37169,841.38441 886.94077,854 806.86575,854 h -26.81679 l -0.27448,94.75 c -0.27118,93.6121 -0.2995,94.804 -2.35769,99.25 -1.14576,2.475 -3.72692,5.9432 -5.7359,7.7071 -7.24081,6.3574 -6.39588,6.2963 -86.61239,6.2603 -67.70301,-0.031 -72.92411,-0.1555 -77.87245,-1.8646 z M 833,682.88078 c 34.17472,-3.03139 61.30021,-11.33727 72.00964,-22.04948 10.09885,-10.10148 13.32663,-20.52131 13.42286,-43.3313 0.0604,-14.32337 -0.17995,-16.71675 -2.29394,-22.83988 C 908.86903,573.60404 890.4411,562.5365 854,557.34063 c -11.32912,-1.61534 -64.33863,-3.06249 -70.4161,-1.92235 L 780,556.09063 v 64.59571 64.59572 l 20.75,-0.6906 c 11.4125,-0.37983 25.925,-1.14964 32.25,-1.71068 z m 350.1826,377.22342 c -6.5317,-2.2633 -11.5898,-7.0009 -13.9202,-13.0384 -1.6698,-4.3259 -1.7624,-21.1398 -1.7624,-320.0658 0,-262.98475 0.2257,-316.13847 1.3559,-319.33577 1.875,-5.30455 6.796,-10.60521 12.1441,-13.08102 4.4131,-2.04298 5.927,-2.08864 78.3875,-2.36419 81.8596,-0.3113 80.9498,-0.37373 88.2748,6.05762 2.0192,1.77285 4.6087,5.24836 5.7545,7.72336 l 2.0832,4.5 0.2601,240.75 0.2601,240.75 h 125.8084 c 141.3158,0 132.5403,-0.4555 140.6103,7.29858 7.8015,7.49609 7.6727,6.0967 7.3462,79.82802 -0.2636,59.5199 -0.421,64.675 -2.0881,68.3734 -2.442,5.4173 -6.3031,9.3389 -11.697,11.88 l -4.5,2.12 -211.5,0.2233 c -203.2036,0.2146 -211.7086,0.1511 -216.8174,-1.6191 z m 468.5472,0.3051 c -7.1055,-2.2069 -13.1179,-8.4476 -15.2583,-15.8374 -2.1928,-7.571 -1.5952,-14.2901 2.3189,-26.0719 9.9925,-30.07831 80.346,-223.08421 99.6795,-273.45829 36.797,-95.87519 85.8886,-212.73821 125.4857,-298.71988 17.9519,-38.98092 22.1951,-46.28379 29.5255,-50.81587 l 4.8621,-3.00596 h 75.1051 c 0,0 74.2,-0.33521 75.1051,0 1.5755,0.4693 4.9733,2.55814 4.9733,2.55814 3.0385,1.56296 6.4153,4.46506 8.68,7.45989 5.3169,7.03095 58.1883,123.74963 83.7935,184.98197 36.0997,86.329 92.4374,234.087 134.9743,354 15.8033,44.55 29.3067,83.4158 30.0076,86.3684 3.5391,14.9104 -2.8531,27.9994 -15.9265,32.612 -6.4807,2.2865 -158.1256,2.2819 -165.8267,-0.01 -6.1583,-1.8288 -10.3973,-5.2001 -13.7659,-10.9483 -1.3738,-2.3442 -11.0427,-28.7342 -21.4863,-58.64457 -10.4437,-29.91034 -19.6981,-56.29493 -20.5653,-58.63243 l -1.5768,-4.25 h -101.2112 -101.2112 l -2.8261,8.75 c -7.831,24.24507 -36.6777,107.5043 -38.4156,110.8773 -2.5709,4.9899 -7.6158,9.7965 -12.6705,12.072 -3.7288,1.6786 -9.2536,1.814 -81.5,1.9962 -66.0393,0.1665 -78.2054,-0.024 -82.2702,-1.2862 z M 2021,765.95279 c 0,-2.68783 -45.6579,-123.70801 -49.0947,-130.12976 -0.9605,-1.79469 -1.2837,-1.89824 -1.9893,-0.63735 -2.4745,4.42158 -48.916,128.29856 -48.916,130.47724 0,1.09828 8.93,1.33708 50,1.33708 34.1693,0 50,-0.33156 50,-1.04721 z m 875.1826,294.14541 c -6.5289,-2.2549 -11.5887,-6.992 -13.9202,-13.0324 -1.6698,-4.3259 -1.7624,-21.1398 -1.7624,-320.0658 0,-262.98475 0.2257,-316.13847 1.3559,-319.33577 1.875,-5.30455 6.796,-10.60521 12.1441,-13.08102 4.4131,-2.04298 5.927,-2.08864 78.3875,-2.36419 81.8596,-0.3113 80.9498,-0.37373 88.2748,6.05762 2.0192,1.77285 4.6087,5.24836 5.7545,7.72336 2.0653,4.4613 2.0855,5.43958 2.3546,113.75 L 3069.0429,629 H 3161 h 91.9571 l 0.2715,-109.25 c 0.2553,-102.78976 0.378,-109.48653 2.0744,-113.25 2.2803,-5.05874 6.0863,-9.08383 11.197,-11.84158 3.9815,-2.14841 4.3448,-2.15972 78.3882,-2.43921 83.0413,-0.31346 81.5639,-0.41932 89.0947,6.38432 2.1606,1.95195 4.7069,5.61395 5.7087,8.21005 1.7308,4.48537 1.8084,18.22134 1.8084,320.18642 0,301.9651 -0.078,315.701 -1.8084,320.1864 -2.3417,6.0683 -8.17,11.2843 -14.8135,13.2572 -7.8425,2.3289 -146.8728,2.3411 -154.7107,0.014 -6.4208,-1.9068 -11.8448,-6.5397 -14.5842,-12.4571 -2.0702,-4.4719 -2.0849,-5.2629 -2.3525,-126.75 l -0.2693,-122.25 H 3160.9807 3069 V 919.319 c 0,135.6477 0.463,127.2711 -7.4737,135.2078 -7.7002,7.7002 -5.0898,7.4781 -87.4578,7.4411 -67.7684,-0.031 -72.9202,-0.1542 -77.8859,-1.8692 z"
         id="path34"
         sodipodi:nodetypes="sssssssssssssssssssssssssssssssssssssssssssssssssssscssssscssssssssssssssssssssssssssscscscssssssscssscssssssscccsssssssssscccssssscsscssssscccsssssscssscccssssccssssssssssssssscccsssssssssssscccsssss" />
    </g>
    <path
       style="fill:#ffffff"
       d="m 2224.4524,1047.5942 c -10.1511,-4.4216 -8.6817,-19.0532 2.2765,-22.6698 4.8131,-1.5884 11.6906,1.0523 13.9079,5.3401 5.761,11.1406 -4.6935,22.3349 -16.1844,17.3297 z m -82.4836,-13.0741 c -10.6044,-3.4006 -21.4134,-14.0621 -28.8388,-28.4453 -10.4695,-20.27974 -15.5048,-43.98063 -12.0146,-56.55225 0.6073,-2.1876 2.7477,-5.62097 4.7565,-7.62971 11.8204,-11.8204 40.2545,-4.65324 67.2614,16.95406 22.0216,17.61876 29.0733,34.65017 21.2252,51.2635 -4.2226,8.9385 -12.0811,16.6548 -21.9083,21.5116 -6.9531,3.4365 -8.5442,3.8219 -16.815,4.0734 -5.9607,0.1813 -10.7098,-0.2271 -13.6664,-1.1753 z m -497.7553,-22.5955 c -1.2375,-0.4974 -3.5648,-1.5983 -3.5648,-1.5983 1.8848,-5.7149 13.2744,-34.763 13.2744,-34.763 1.3378,0.33817 3.1318,1.13128 4.9704,2.22951 7.6033,4.54165 12.5642,11.64366 9.7157,21.4424 -3.1211,10.73609 -14.7679,16.55929 -24.3957,12.68939 z m 194.3842,-11.599 c -2.1135,-1.82866 -5.9086,-6.29613 -7.3951,-9.32271 -2.3662,-4.81793 -2.7007,-6.68539 -2.6871,-15.00289 0.013,-8.03389 0.3924,-10.26513 2.4578,-14.45781 4.6001,-9.33815 10.95,-14.05288 20.2247,-14.94885 5.6018,-0.54115 11.552,1.72641 11.552,1.72641 0,0 -10.2979,30.49945 -18.9229,55.37435 0,0 -3.1157,-1.5396 -5.2294,-3.3685 z m -119.3332,-11.80347 c -17.0232,-4.79178 -34.3774,-18.90431 -41.8366,-34.02213 -5.1074,-10.35139 -4.8031,-22.31116 -5.1306,-29.8226 0,0 0.8405,-2.56064 1.2885,-4.02416 1.7761,-5.80184 55.8876,-152.65264 65.093,-176.65324 35.8719,-93.5261 82.4183,-204.60684 121.3099,-289.5 23.2897,-50.83706 26.2346,-55.83254 35.4404,-60.11923 l 5.0709,-2.36123 68.595,-0.01 c 65.1907,-0.009 68.7857,0.37414 68.7857,0.37414 0,0 -0.1854,2.74918 0.1123,4.26648 0.5263,2.68293 1.3489,4.12082 2.4489,5.22082 2.2206,2.22065 6.5003,5.23177 14.9395,1.55583 1.6629,-0.72432 5.454,-2.56987 5.454,-2.56987 0,0 2.9831,3.19083 5.4754,7.98232 6.4994,12.49521 43.9544,96.30113 44.1311,96.93239 0,0 -2.9218,-0.2844 -8.1642,0.97192 -13.7119,3.28602 -23.0385,8.17258 -31.2585,17.31512 -11.8538,13.18436 -13.0622,29.35294 -2.4272,41.77747 8.0026,9.34924 17.9766,12.30212 38.6741,11.44974 15.8481,-0.65267 19.8961,0.46444 22.2699,6.14576 2.9977,7.1745 1.2054,16.26657 -4.0163,20.37393 -4.7358,3.72522 -8.1059,3.66527 -24.1427,-0.42947 -11.9799,-3.05885 -16.7356,-3.80615 -24.421,-3.83746 -10.1462,-0.0413 -14.956,1.62374 -14.956,5.17757 0,2.45472 9.5863,11.21582 17.0291,15.56327 9.2229,5.38723 22.4771,9.22005 45.7143,13.21957 12.1969,2.0993 22.0777,4.34648 24.8582,5.65347 9.5422,4.48536 14.2042,12.34799 13.0614,22.02884 -1.9302,16.35237 -17.6536,25.3503 -32.163,18.40572 -2.75,-1.31622 -10.625,-6.94251 -17.5,-12.50286 -7.317,-5.91783 -15.8702,-11.80579 -20.6281,-14.20016 -7.0254,-3.53551 -9.2638,-4.1611 -16.5,-4.61147 -22.0535,-1.37256 -39.8853,9.33438 -39.8663,23.93732 0.012,9.48972 4.7459,17.20773 13.8284,22.54689 4.4182,2.59725 5.5424,2.7763 21.166,3.37088 24.4338,0.92986 32.3276,4.28409 38.4896,16.3551 2.8051,5.49498 3.0056,6.61725 2.9399,16.45705 -0.056,8.37592 -0.5229,11.71384 -2.258,16.13927 -2.9615,7.55339 -8.0739,13.23449 -14.9473,16.6097 -5.5491,2.72497 -6.2127,2.81095 -21.6944,2.81095 h -15.9702 l -3.7344,6.5 c -8.0999,14.09835 -10.0647,15.8433 -20.907,18.56825 -3.53,0.88719 -7.4855,2.29356 -8.79,3.12528 -2.0903,1.33269 -2.3005,2.03273 -1.7709,5.89647 0.753,5.49421 5.3292,14.59659 10.1418,20.17305 5.5831,6.46926 14.8023,12.53991 28.3539,18.67045 22.5685,10.20965 29.6694,17.09719 34.5355,33.498 6.7677,22.81012 -10.7238,42.35708 -29.6825,33.17048 -11.5137,-5.57907 -19.2211,-14.26671 -38.6826,-43.60198 -14.1687,-21.35728 -18.6605,-27.00856 -30.2832,-38.09986 -16.4434,-15.6916 -35.6085,-27.90616 -49.314,-31.4294 -23.6542,-6.08074 -45.1778,-1.80153 -60.6953,12.06714 -7.6608,6.84686 -16.7828,20.91618 -21.6299,33.36099 -6.1814,15.87071 -7.4544,26.3666 -4.621,38.10113 1.7251,7.14451 1.9239,17.50523 0.4385,22.8547 -1.5519,5.58892 -7.4514,11.38077 -17.9733,17.6453 -8.5394,5.08419 -10.314,6.74743 -23.4727,22 -22.0857,25.60013 -39.5851,38.99138 -61.6391,47.16876 -7.3153,2.71246 -9.8605,3.13499 -20.8334,3.45852 -8.9517,0.26393 -13.9861,-0.0498 -17.7355,-1.10515 z M 1827.242,863.28568 c 5.2566,-3.07865 7.155,-6.62043 7.58,-14.14167 1.2571,-22.24742 -19.7486,-55.46474 -42.1665,-66.67997 -3.8083,-1.90522 -8.0388,-3.46404 -9.4011,-3.46404 -2.3127,0 -2.4333,0.24875 -1.8185,3.75 7.9568,45.31473 11.8561,61.0844 17.5403,70.93717 3.1713,5.4972 8.0608,9.86456 12.7088,11.3517 3.953,1.26479 11.941,0.36458 15.557,-1.75319 z m 193.1686,-97.14097 c 0.542,-0.87698 -27.305,-76.64033 -40.6483,-110.59208 -4.0956,-10.42106 -7.9584,-19.11801 -8.5841,-19.32656 -1.5523,-0.51743 -1.9801,0.51111 -20.2856,48.77393 -22.5578,59.47386 -29.9945,80.02616 -29.3399,81.08531 0.7218,1.16786 98.1366,1.22639 98.8579,0.0594 z m -128.7748,119.3936 c -7.711,-7.14637 -5.6991,-19.41102 3.8793,-23.648 3.7784,-1.67139 5.083,-1.80633 8.5189,-0.88115 7.2527,1.95295 9.813,9.32801 6.0863,17.53221 -4.0456,8.90634 -12.8344,12.2332 -18.4845,6.99694 z m -623.7233,-25.81833 c -5.7566,-3.87936 -7.564,-10.62567 -4.4566,-16.63479 1.654,-3.19831 6.9717,-6.08699 11.1952,-6.08145 3.4467,0.005 8.803,3.10778 10.3485,5.99549 1.6848,3.14811 1.4587,9.65239 -0.4361,12.54422 -2.1655,3.30494 -7.3606,6.44806 -10.6656,6.45281 -1.4312,0.002 -4.1246,-1.02227 -5.9854,-2.27628 z m 22.0168,-51.08735 c -21.3492,-5.75638 -35.6126,-32.45443 -29.5344,-55.28244 6.7858,-25.48552 33.2542,-41.10972 69.128,-39.04116 10.4644,0.6034 20.0458,3.72284 26.3095,6.953 0.039,0.0201 0.025,52.11072 0.025,52.11072 -1.751,2.89172 -5.1982,7.34845 -10.2028,12.4734 -17.6625,18.08732 -38.3041,27.4825 -55.7207,22.78648 z m 851.2772,-3.77084 c -10.6821,-4.10455 -20.6841,-17.40047 -21.8917,-29.10105 -1.112,-10.77393 3.8344,-17.61193 14.3137,-19.78741 19.8017,-4.11081 40.7015,11.42286 39.102,29.06234 -1.5406,16.98946 -15.7116,25.90196 -31.524,19.82612 z M 1333.0071,683.46818 c -8.1475,-3.67591 -12.4415,-10.78523 -11.8076,-19.54919 0.8334,-11.5216 9.1336,-18.56928 20.8696,-17.72037 10.638,0.76948 13.818,5.21145 13.818,19.30138 0,10.04443 -1.4361,14.34779 -5.5959,16.76862 -4.4606,2.59587 -12.8921,3.18104 -17.2841,1.19956 z"
       id="path30"
       sodipodi:nodetypes="ssssssssssssssssssssssssccsssssssscccssscscssssssssssssssssssssssssscsssssssssssssssssssssssssssssssssssssssssscsssscssscsccsssssssssss" />
    <g
       id="g22" />
  </g>
</svg>
