<?xml version="1.0" encoding="UTF-8" standalone="no"?>
<svg
   xmlns:dc="http://purl.org/dc/elements/1.1/"
   xmlns:cc="http://creativecommons.org/ns#"
   xmlns:rdf="http://www.w3.org/1999/02/22-rdf-syntax-ns#"
   xmlns:svg="http://www.w3.org/2000/svg"
   xmlns="http://www.w3.org/2000/svg"
   xmlns:sodipodi="http://sodipodi.sourceforge.net/DTD/sodipodi-0.dtd"
   xmlns:inkscape="http://www.inkscape.org/namespaces/inkscape"
   version="1.1"
   id="svg10"
   width="3000"
   height="3000"
   viewBox="0 0 3000 3000"
   sodipodi:docname="profile_placeholder.svg"
   inkscape:version="1.0.2-2 (e86c870879, 2021-01-15)">
  <metadata
     id="metadata16">
    <rdf:RDF>
      <cc:Work
         rdf:about="">
        <dc:format>image/svg+xml</dc:format>
        <dc:type
           rdf:resource="http://purl.org/dc/dcmitype/StillImage" />
        <dc:title></dc:title>
      </cc:Work>
    </rdf:RDF>
  </metadata>
  <defs
     id="defs14" />
  <sodipodi:namedview
     pagecolor="#ffffff"
     bordercolor="#666666"
     borderopacity="1"
     objecttolerance="10"
     gridtolerance="10"
     guidetolerance="10"
     inkscape:pageopacity="0"
     inkscape:pageshadow="2"
     inkscape:window-width="1920"
     inkscape:window-height="1017"
     id="namedview12"
     showgrid="false"
     inkscape:zoom="0.28333333"
     inkscape:cx="1306.387"
     inkscape:cy="1574.5437"
     inkscape:window-x="-8"
     inkscape:window-y="-8"
     inkscape:window-maximized="1"
     inkscape:current-layer="g18" />
  <g
     inkscape:groupmode="layer"
     inkscape:label="Image"
     id="g18">
    <g
       id="g22">
      <path
         style="fill:#fdfdfd"
         d="m 655.46936,2997.75 c 2.56636,-11.3788 16.90564,-67.8417 21.65004,-85.25 57.08384,-209.4536 134.9814,-393.4209 229.71162,-542.5 36.15534,-56.8985 73.87094,-107.4734 116.70798,-156.5 17.813,-20.3868 64.6708,-67.4852 83.461,-83.8896 39.4833,-34.47 87.2635,-69.0971 122.25,-88.5966 3.1625,-1.7626 5.75,-3.5411 5.75,-3.9522 0,-0.4112 -5.5125,-3.3234 -12.25,-6.4718 -46.8995,-21.9152 -97.0811,-54.6844 -139.0063,-90.7728 l -13.7564,-11.8412 -7.7436,2.1328 c -9.6664,2.6624 -35.4185,3.7558 -45.9094,1.9492 -34.27129,-5.9017 -69.6673,-36.7528 -79.23112,-69.0578 -3.0702,-10.3706 -6.96455,-39.7973 -5.56623,-42.0598 0.32173,-0.5206 0.56878,-5.5129 0.549,-11.0941 -0.0198,-5.5812 0.39666,-13.1173 0.92544,-16.7468 2.23854,-15.3658 4.01793,-26.7885 4.59463,-29.4953 0.61386,-2.8811 0.63258,-2.8683 3.65079,2.5 25.59041,45.5163 58.68957,90.5144 93.36109,126.9237 16.9173,17.7652 33.7542,33.9723 35.2925,33.9723 2.2144,0 16.2348,-6.2224 25.5049,-11.3192 26.1536,-14.3798 48.212,-33.0518 71.0949,-60.1808 26.8684,-31.854 28.8625,-33.6761 49.814,-45.5189 10.0487,-5.6801 17.0624,-12.4358 20.4784,-19.7251 2.5135,-5.3636 2.6971,-6.6764 2.6925,-19.256 0,-10.5633 -0.4232,-14.8052 -1.9279,-19.5 -2.68,-8.3615 -2.8048,-31.9102 -0.2226,-42 7.3434,-28.6943 22.2164,-56.8681 39.0304,-73.9351 12.9004,-13.0945 23.1201,-19.7272 39.125,-25.3923 24.7842,-8.7727 65.5529,-5.2046 90.251,7.8987 21.2367,11.2669 47.4651,30.9001 65.249,48.842 15.4097,15.5466 22.4747,24.5458 39.7141,50.5867 21.8176,32.9565 24.11,36.3184 30.617,44.902 12.0045,15.8357 23.7911,26.6021 35.7088,32.6182 21.4455,10.8256 39.8558,0.9149 46.9345,-25.2658 2.7628,-10.2185 -0.6635,-27.8836 -8.1241,-41.8861 -6.0878,-11.4259 -19.1195,-22.7375 -34.3503,-29.8163 -2.75,-1.2781 -10.3244,-4.7196 -16.832,-7.6477 -15.8431,-7.1287 -23.2315,-11.3624 -31.9048,-18.2822 -9.128,-7.2826 -14.6292,-13.2721 -20.0872,-21.8706 -3.7891,-5.9692 -5.3331,-9.1411 -8.781,-18.0391 -0.4875,-1.2581 -1.1692,-4.6941 -1.5149,-7.6354 -0.4897,-4.1667 -0.2333,-6.0169 1.161,-8.3772 2.2129,-3.7463 4.2078,-4.6689 17.6487,-8.1622 5.8817,-1.5287 12.7714,-3.9969 15.3103,-5.4848 5.5314,-3.2416 11.7967,-11.4375 18.1562,-23.7506 2.8235,-5.4669 5.875,-9.8684 7.926,-11.4328 3.0517,-2.3276 3.912,-2.4934 10.1264,-1.9517 3.7352,0.3257 13.4888,0.8573 21.6745,1.1816 12.2296,0.4844 15.9739,0.2876 21,-1.1034 23.3932,-6.4742 35.5849,-25.6578 35.5869,-55.9959 0,-16.4186 -3.4446,-25.8515 -12.6377,-34.5973 -5.9793,-5.6884 -9.9947,-8.088 -18.3324,-10.9558 -5.7546,-1.9792 -9.3669,-2.3173 -31.5,-2.9479 -15.0149,-0.4279 -26.5976,-1.2078 -29,-1.9528 -11.8724,-3.6818 -24.5819,-14.3724 -31,-26.0757 -2.82,-5.1422 -3,-6.1306 -3,-16.4705 0,-10.3464 0.1783,-11.3233 3,-16.4414 5.6766,-10.2962 15.308,-17.7689 29.5,-22.8881 10.394,-3.7493 16.3115,-4.6705 30,-4.6705 12.1702,0 14.3184,0.2774 21.8085,2.8159 14.1071,4.7812 23.5379,10.5852 43.9414,27.0429 17.2167,13.8872 27.6152,21.478 31.841,23.2436 12.5043,5.2247 25.8578,3.0886 35.9195,-5.7457 9.6891,-8.5072 14.1472,-25.7009 9.8976,-38.1728 -2.8989,-8.5078 -12.0044,-16.408 -23.8892,-20.7269 -1.6397,-0.5958 -6.8147,-1.7618 -11.5,-2.5911 -4.6854,-0.8293 -10.9938,-1.9451 -14.0188,-2.4795 -3.025,-0.5344 -12.025,-2.0709 -20,-3.4144 -23.671,-3.9877 -39.1731,-7.6675 -44.2364,-10.5005 -0.9551,-0.5343 -2.1597,-0.9715 -2.677,-0.9715 -2.3527,0 -16.4821,-7.354 -24.6154,-12.8117 -8.9359,-5.9962 -19.5673,-15.7734 -22.0795,-20.3055 -2.0085,-3.6234 -1.6555,-6.3463 1.1921,-9.1939 4.4849,-4.4848 11.3831,-6.1301 25.4162,-6.0619 13.0441,0.063 18.3429,0.9249 39.5,6.4221 28.2895,7.3504 30.291,7.4323 38.8761,1.5918 8.1608,-5.5519 9.973,-27.2115 2.8339,-33.8715 -4.7994,-4.4773 -8.1914,-4.9171 -35.4138,-4.591 -27.6351,0.331 -32.7253,-0.3553 -44.7577,-6.0349 -6.8032,-3.2112 -17.481,-13.1925 -21.8203,-20.3969 -6.2784,-10.4239 -7.5528,-15.0742 -7.6039,-27.7466 -0.042,-10.3415 0.2162,-12.0668 2.5602,-17.1269 5.8037,-12.5286 13.7754,-22.6759 23.8255,-30.3277 16.7744,-12.7715 30.7209,-16.9163 57,-16.9399 17.6068,-0.016 19.9917,0.4137 38,6.8454 17.814,6.3624 25.035,8.514 33.5,9.982 11.1616,1.9356 15.5874,1.9504 27.0548,0.09 23.2539,-3.7716 41.6913,-13.6816 60.4485,-32.4909 15.4729,-15.5157 27.4708,-34.2935 35.3382,-55.3075 7.4453,-19.8865 9.8935,-34.0937 10.0333,-58.2249 0.132,-22.79265 -0.8024,-28.47855 -8.4225,-51.25369 -11.0362,-32.98521 -31.5932,-59.25585 -55.7173,-71.20328 -13.8749,-6.87153 -31.9818,-9.84888 -52.235,-8.58909 -13.0219,0.80999 -31.8881,5.1414 -41.5,9.52779 -1.1,0.50199 -5.6,2.35986 -10,4.12861 -19.3942,7.79626 -40.7398,20.33362 -68,39.93997 -22.5209,16.19772 -40.9918,28.2763 -48.5,31.71535 -4.125,1.88943 -8.58,3.95261 -9.8999,4.58483 -1.3199,0.63223 -6.12,1.14951 -10.6668,1.14951 -7.4371,0 -8.5356,-0.25093 -10.9451,-2.5 -5.5937,-5.22142 -5.996,-6.99495 -5.8976,-26 0.1035,-19.99766 2.8038,-38.74831 9.0727,-63 6.3172,-24.4387 17.794,-48.75266 28.7002,-60.80267 1.6603,-1.83448 1.8115,-2.47112 0.7436,-3.13115 -6.1009,-3.77058 -96.0526,-4.99063 -130.6071,-1.77148 -109.6526,10.21538 -212.9523,47.60339 -303.8884,109.98847 -29.6474,20.33911 -55.8066,42.02027 -83.4762,69.18638 -67.76507,66.53225 -116.26548,140.05065 -150.1633,227.62225 -39.06829,100.929 -51.39929,213.8444 -35.44591,324.5793 1.3606,9.4441 2.4833,17.5441 2.4949,18 0.0116,0.4559 1.08449,-2.1839 2.3842,-5.8662 5.14696,-14.5821 10.9576,-24.2678 20.4699,-34.1208 18.26082,-18.915 38.24359,-22.5364 60.9444,-11.0448 8.10553,4.1032 12.3078,8.3632 16.88291,17.1146 10.25515,19.6164 13.02997,40.3424 8.3336,62.2461 -1.23821,5.775 -2.48058,11.625 -2.76082,13 -0.6143,3.014 -7.69418,29.4848 -9.76232,36.5 -0.81071,2.75 -2.12987,7.475 -2.93144,10.5 -0.80158,3.025 -3.31326,12.025 -5.58152,20 -4.06237,14.2829 -6.27421,22.1166 -8.18817,29 -1.00982,3.6317 -4.10406,17.8004 -5.78721,26.5 -0.53206,2.75 -1.62849,8.375 -2.43651,12.5 -0.80802,4.125 -1.76045,9.4125 -2.11652,11.75 -0.35606,2.3375 -1.0045,4.25 -1.44097,4.25 -1.17535,0 -14.73497,-27.0315 -23.3255,-46.5 -17.99801,-40.7885 -31.95402,-84.6468 -41.13794,-129.2805 l -3.23447,-15.7195 -2.09823,12 c -1.15402,6.6 -3.02504,17.7246 -4.15783,24.7214 -1.13278,6.9968 -3.03038,15.5468 -4.21689,19 -7.13676,20.7709 -27.14057,37.6838 -51.85976,43.8466 -7.33584,1.8289 -10.62288,2.0615 -24,1.6979 -16.33507,-0.4441 -19.74467,-1.1693 -31,-6.594 -7.19687,-3.4687 -17.73709,-13.9693 -22.25539,-22.1719 -11.8952,-21.5947 -12.70451,-47.1341 -2.68644,-84.7771 2.15891,-8.1121 2.16534,-8.3189 0.32232,-10.3796 -2.83064,-3.1648 -8.78939,-5.3461 -19.88049,-7.2775 -17.70048,-3.0824 -24.51244,-5.7708 -31.91733,-12.5964 -5.41339,-4.9899 -9.4634,-13.258 -11.74096,-23.9694 -2.24371,-10.5522 -2.26876,-13.8271 -0.18534,-24.2297 2.1172,-10.5712 6.79374,-21.4893 14.90452,-34.7969 3.55437,-5.8317 6.43911,-11.7284 6.43911,-13.1621 0,-5.8433 -8.73302,-4.9268 -24,2.5187 -3.575,1.7435 -19.1,11.5492 -34.5,21.7904 -44.16443,29.3701 -56.00546,35.8254 -74.40031,40.5605 -8.53893,2.198 -22.9633,2.1896 -29.35202,-0.017 -10.37674,-3.5843 -19.31334,-11.8468 -25.59458,-23.6637 -9.76295,-18.3671 -9.62279,-32.937 0.46324,-48.1548 10.28743,-15.5216 32.51401,-30.5397 60.57112,-40.9268 21.15567,-7.8321 35.45884,-12.6312 53.31255,-17.8881 24.06643,-7.0861 35.13923,-12.3881 54,-25.8569 23.26586,-16.6146 42.56689,-40.8263 49.86299,-62.5496 5.36513,-15.974 6.03603,-39.4254 1.60558,-56.1238 -10.92515,-41.1771 -45.49166,-78.0806 -83.46857,-89.1118 -9.63182,-2.7977 -30.32798,-1.9575 -65.29085,2.6508 -10.75379,1.4174 -28.71348,1.1671 -36.76387,-0.5124 -39.19139,-8.1764 -73.89309,-35.4077 -92.16456,-72.3238 -7.0363,-14.2163 -9.88813,-22.3672 -13.41721,-38.348 -3.22945,-14.624 -3.25035,-43.05351 -0.0412,-56.08356 8.6971,-35.3131 24.09069,-57.36716 54.64068,-78.2825 23.14395,-15.84497 50.4782,-22.68327 81.44757,-20.37602 20.55685,1.53151 39.25485,6.89247 60.61785,17.37992 17.26884,8.47756 33.23685,19.25155 54.34847,36.67019 28.83474,23.79079 40.35103,31.5448 57.6495,38.8159 6.86802,2.88684 9.17445,3.36334 16.6335,3.43642 8.07897,0.0792 8.9473,-0.11699 12.94536,-2.9243 8.61122,-6.04653 12.00591,-19.27978 7.43693,-28.99085 C 767.18838,919.12095 755.06582,906.16503 738,893.58331 719.49777,879.9426 674.82813,854.59001 663.02078,851.0283 648.65225,846.69401 622.89834,843.02114 596,841.47019 c -37.04249,-2.13586 -57.71014,-13.71924 -64.51897,-36.16026 -4.52425,-14.91134 2.43792,-38.54809 15.29801,-51.93714 C 556.2884,743.47229 575.27457,736 590.92115,736 c 7.62557,0 19.60145,3.40781 25.83692,7.35206 5.93818,3.75619 12.20079,11.26969 15.4099,18.48787 1.62854,3.66304 3.67297,8.23507 4.54318,10.16007 5.97657,13.22091 26.65154,32.244 48.54234,44.66391 9.05699,5.13856 31.20468,15.59149 38.74651,18.287 1.925,0.68801 4.4,1.62509 5.5,2.0824 3.93698,1.63674 18.1345,5.86321 25.5,7.59112 10.52669,2.46951 30.90268,2.47778 41.2535,0.0167 4.26443,-1.01392 7.94399,-2.1517 8.1768,-2.52839 0.23281,-0.3767 -4.97053,-1.50598 -11.56299,-2.50953 -16.43735,-2.50214 -26.19473,-6.1189 -36.36731,-13.4802 -7.55377,-5.46621 -8.28156,-6.14918 -13.45144,-12.62301 -8.90636,-11.1527 -14.07188,-23.99818 -16.68829,-41.5 -2.29705,-15.36549 -0.0555,-30.26189 6.69616,-44.5 7.5181,-15.85437 14.0912,-20.34033 34.97575,-23.86999 22.2372,-3.75828 22.582,-4.12023 24.51197,-25.73169 4.74416,-53.12415 12.05414,-79.64846 28.89273,-104.8374 11.0455,-16.52303 28.83174,-32.25498 47.37225,-41.90081 14.16289,-7.36834 21.84769,-9.57075 42.311,-12.12601 8.62434,-1.07692 16.42651,-2.62466 19.02479,-3.774 2.42255,-1.07162 8.66849,-5.49852 13.87986,-9.83757 18.27222,-15.21367 25.30492,-18.60098 38.55297,-18.5691 10.4312,0.0251 17.20199,2.88718 25.45655,10.76073 9.0284,8.61162 14.6798,18.02176 30.4097,50.63554 2.5863,5.36233 8.5509,16.38733 13.2547,24.5 23.0645,39.77983 27.5912,58.27373 21.8144,89.1244 -2.1102,11.26949 -1.6806,13.2677 5.5569,25.84534 6.5497,11.38228 18.335,25.75609 26.6938,32.55673 6.238,5.07515 17.4556,12.72383 18.6608,12.72383 0.2864,0 2.8955,1.07301 5.7981,2.38446 10.7243,4.84557 17.9049,6.85883 30.994,8.6899 10.7251,1.50036 21.3001,0.3248 41.2833,-4.58921 38.5104,-9.47 48.9391,-18.5054 53.653,-46.48515 0.5097,-3.025 1.3124,-19.675 1.7839,-37 0.6136,-22.55074 1.3172,-33.60021 2.4763,-38.89243 4.1817,-19.09147 10.7304,-25.47855 26.0868,-25.44283 4.5463,0.0106 10.3449,0.73453 13.4315,1.67693 2.9873,0.91208 5.7282,1.65833 6.0909,1.65833 0.3626,0 1.2374,-2.5875 1.9439,-5.75 1.8929,-8.47319 6.9357,-23.95887 9.8507,-30.25 6.4215,-13.85884 11.6893,-18.00051 22.8932,-17.99921 15.1881,0.002 27.7821,10.83067 31.1666,26.79843 2.1416,10.10407 0.8023,26.3686 -3.434,41.70078 -0.9118,3.3 -2.0213,7.35 -2.4657,9 -1.6473,6.11675 -5.9284,18.41865 -11.4843,33 -8.2048,21.53325 -9.885,26.91605 -15.6078,50 -5.4268,21.89015 -6.1599,25.34422 -9.9489,46.87543 -0.6654,3.78149 -1.2226,11.65649 -1.2382,17.5 -0.025,9.23617 0.2984,11.34352 2.472,16.12623 2.6722,5.87967 8.2644,11.56726 12.3918,12.60318 4.2248,1.06035 10.9266,-2.2454 16.0705,-7.9269 5.2229,-5.76878 11.3794,-17.96992 13.7864,-27.32228 2.0543,-7.98174 1.9732,-13.63642 -0.4569,-31.85566 -1.1004,-8.25 -2.259,-17.025 -2.5749,-19.5 -0.8102,-6.34988 2.0354,-21.16807 5.4775,-28.52379 8.822,-18.85212 29.2372,-28.59886 53.4311,-25.50928 15.8456,2.02351 28.8223,8.25522 39.662,19.04652 10.9576,10.90873 16.0602,24.95085 14.5303,39.98655 -1.4007,13.76543 -9.3461,24.21792 -25.156,33.09351 -21.6459,12.15185 -30.6907,19.90472 -34.2169,29.3292 -5.1072,13.65028 -0.3033,23.30863 14.8124,29.78057 7.4641,3.19582 7.7809,3.24004 22.0728,3.08149 25.7607,-0.28578 32.7055,-2.3307 48.5,-14.28099 9.3743,-7.09268 26.1814,-23.45799 34.6352,-33.72483 5.8206,-7.0688 14.8648,-20.80833 14.8648,-22.58184 0,-0.49217 0.6516,-2.31286 1.4481,-4.04598 2.4916,-5.42204 5.4111,-15.03086 9.07,-29.8518 10.003,-40.51864 13.2297,-50.91603 19.079,-61.47886 6.7834,-12.24971 19.659,-22.32886 32.9445,-25.78928 7.5642,-1.97023 21.3888,-1.96055 28.9983,0.0203 13.3976,3.48761 27.8379,12.75848 35.7842,22.9739 4.8665,6.25619 11.1226,19.33225 12.5706,26.27381 4.018,19.26331 -2.786,42.06961 -17.9885,60.29566 -6.3285,7.58711 -30.056,27.75615 -52.9062,44.97182 -11.825,8.90912 -24.4074,18.72626 -27.9608,21.81585 -7.4896,6.51194 -25.0392,24.21876 -25.0392,25.26351 0,0.39052 2.5875,1.01208 5.75,1.38125 12.1822,1.42209 46.6528,7.48941 61.9165,10.89821 99.8453,22.29818 189.985,66.91026 269.8335,133.5465 26.9097,22.45705 64.2028,60.5269 86.7218,88.528 56.8725,70.7178 98.1929,153.1228 120.7436,240.7984 9.0499,35.1853 13.2983,59.8978 17.5697,102.2016 2.4668,24.4319 2.5987,28.3522 2.1866,65 -0.48,42.6815 -2.4398,65.8987 -8.6955,103.0095 -20.566,122.005 -78.7683,238.91 -163.2933,327.9905 -41.1178,43.3339 -78.4805,73.8563 -131.457,107.3901 -15.5178,9.8227 -67.1306,37.1099 -70.192,37.1099 -2.7911,0 0,2.0943 12.6822,9.5 29.9912,17.5198 69.3097,45.3459 98.2339,69.5211 21.4766,17.9504 39.7961,35.0214 64.5118,60.1151 163.6904,166.1945 296.5082,422.3217 382.3688,737.3638 4.7444,17.4083 19.0837,73.8712 21.65,85.25 l 0.5075,2.25 H 1500 654.9619 Z M 1737.3557,2006.4186 c 13.9366,-3.5871 29.5807,-13.7037 38.8986,-25.1548 16.7611,-20.5985 18.1282,-41.8527 4.0931,-63.6335 -6.1043,-9.4732 -26.3076,-29.3275 -38.8546,-38.1835 -9.0063,-6.3569 -12.8619,-8.748 -24.5365,-15.2172 -4.7663,-2.6412 -20.8051,-9.0165 -27.2497,-10.8316 -2.8636,-0.8066 -10.177,-1.7348 -16.252,-2.0627 -17.107,-0.9234 -26.7648,2.5146 -32.1949,11.4608 -4.1845,6.8939 -5.2597,11.702 -5.2597,23.5207 0,13.9618 2.2689,25.4901 9.0409,45.9367 11.3257,34.1958 29.1241,59.6293 48.8722,69.8373 11.2021,5.7904 30.3488,7.6978 43.4426,4.3278 z m -497.61,-46.3256 c 7.3293,-2.679 10.9378,-5.1063 17.5119,-11.7794 6.6431,-6.7432 7.8462,-8.3649 11.2852,-15.2119 4.1421,-8.2468 5.4348,-13.9707 5.4464,-24.1158 0.012,-10.9489 -1.8852,-17.4299 -7.4615,-25.4834 -7.5821,-10.9504 -22.556,-18.4087 -37.0277,-18.4431 -14.695,-0.035 -31.6413,14.1449 -36.8347,30.8215 -8.029,25.7823 4.7373,56.6859 26.7484,64.7498 4.9953,1.83 14.545,1.5775 20.332,-0.5377 z m 344.9099,-82.6439 c 3.7513,-2.8613 7.3585,-9.8969 7.3224,-14.282 -0.035,-4.2601 -3.4673,-10.6758 -7.2581,-13.5671 -4.6726,-3.564 -12.0632,-4.48 -17.0506,-2.1133 -5.0933,2.4169 -9.165,6.8869 -10.5823,11.6173 -2.2022,7.3502 2.6817,16.9916 10.413,20.5567 4.5988,2.1206 12.8746,1.0537 17.1556,-2.2116 z m -278.7702,-112.0762 c 4.135,-0.827 10.4772,-7.0958 13.2305,-13.0774 2.8802,-6.2575 3.1477,-15.7174 0.5561,-19.673 -2.0508,-3.1303 -8.7644,-6.5672 -12.8935,-6.6005 -4.1515,-0.034 -13.0318,4.3018 -15.974,7.7985 -7.8784,9.3629 -3.7666,27.3389 7.1955,31.458 2.1115,0.7934 4.2618,0.8191 7.8854,0.094 z M 1730.5,1629.8699 c 12.4076,-6.3418 18.9831,-18.7676 18.3476,-34.6717 -0.4473,-11.1941 -3.6377,-17.9154 -12.3515,-26.0209 -16.9127,-15.7322 -44.4324,-19.8854 -60.1424,-9.0767 -18.9468,13.0358 -6.3241,53.5206 21.1012,67.6777 10.5645,5.4534 24.7155,6.3491 33.0451,2.0916 z m 142,-261.6555 c 8.4843,-2.258 16.2454,-7.1159 23.0954,-14.4561 10.4073,-11.152 15.4046,-24.8182 15.4046,-42.1268 0,-17.6407 -4.4329,-29.6761 -15.1502,-41.1329 -8.7258,-9.3279 -19.8318,-14.4871 -37.8498,-17.5828 -9.1117,-1.5655 -31.8812,-1.3002 -42,0.4893 -13.8499,2.4494 -15.0273,2.7079 -26.2328,5.7596 -12.5197,3.4096 -15.1935,4.4284 -27.2672,10.3895 -16.9313,8.3594 -22.9128,15.6781 -22.8403,27.9458 0.035,5.8579 0.5858,8.1109 3.3786,13.809 11.3609,23.1795 44.8638,45.6767 83.9617,56.38 12.3314,3.3758 33.8559,3.6244 45.5,0.5254 z m 48.5102,-264.4644 c 5.3784,-3.6605 7.3133,-7.0738 7.7965,-13.7539 0.3815,-5.2745 0.1009,-6.5374 -2.2379,-10.0715 -5.195,-7.8502 -15.7675,-10.087 -23.7498,-5.0248 -5.4986,3.4872 -7.819,7.7319 -7.819,14.3035 0,5.5646 1.5635,9.1335 5.6607,12.9219 3.633,3.3591 4.6614,3.7003 11.4414,3.7959 4.2534,0.06 6.3981,-0.4628 8.9081,-2.1711 z M 882.63658,1969.555 c -6.32678,-3.0994 -11.18683,-7.8416 -14.40429,-14.055 -3.60703,-6.9657 -3.76507,-19.6887 -0.3321,-26.7362 11.54846,-23.7076 45.81538,-23.7464 56.29139,-0.064 6.66307,15.063 -0.0962,33.8518 -14.65614,40.7397 -7.53866,3.5664 -19.74707,3.6186 -26.89886,0.1151 z m 276.68762,-235.9945 c -15.006,-4.6921 -27.6095,-23.0287 -34.4087,-50.0605 -2.714,-10.7902 -5.6218,-24.6287 -8.4051,-40 -0.8962,-4.95 -2.0324,-11.025 -2.5248,-13.5 -0.4924,-2.475 -1.6212,-8.55 -2.5084,-13.5 -0.8873,-4.95 -2.2576,-12.3106 -3.0452,-16.357 -1.8148,-9.3237 -1.8129,-13.0596 0.01,-13.758 2.1248,-0.8153 12.2801,1.516 18.4072,4.2257 30.5762,13.5222 65.6894,58.9854 73.2872,94.8893 0.6983,3.3 1.279,11.0063 1.2903,17.1252 0.019,10.4039 -0.1736,11.506 -2.9747,17 -5.1066,10.0157 -15.5259,15.4689 -29.2482,15.3079 -3.1354,-0.037 -7.5799,-0.6545 -9.8766,-1.3726 z m -887.74369,-12.4203 c -5.51384,-3.2365 -8.70222,-8.3394 -9.23409,-14.7788 -0.58964,-7.1388 1.45722,-11.5318 7.25853,-15.5782 3.18105,-2.2187 5.01363,-2.7228 9.99717,-2.75 7.01655,-0.038 11.27851,2.2006 15.21169,7.9906 2.00059,2.9451 2.30294,4.4255 1.97877,9.689 -0.31406,5.0994 -0.92819,6.8915 -3.42691,10 -1.67436,2.083 -4.5791,4.5531 -6.45498,5.4892 -4.35258,2.1719 -11.57418,2.1428 -15.33018,-0.062 z m 36.8711,-84.5366 c -18.84744,-4.5785 -34.98483,-18.4457 -43.83172,-37.6656 -5.39894,-11.7292 -7.04173,-19.6537 -6.93196,-33.438 0.0812,-10.1905 0.49892,-13.2041 2.77047,-19.9851 8.16108,-24.3623 22.88969,-38.9535 52.0416,-51.556 6.86858,-2.9693 29.66035,-6.931 44,-7.6481 12.25669,-0.6129 32.63234,0.9458 40.71691,3.1148 16.48291,4.4221 26.95494,11.9987 32.48488,23.5029 3.8405,7.9896 4.38301,21.3933 1.34196,33.1562 -7.92775,30.6649 -39.12182,66.9662 -70.80176,82.3936 -17.9504,8.7414 -36.97016,11.7254 -51.79038,8.1253 z m 293.20358,-100.0622 c -5.08323,-1.8125 -8.48065,-5.0833 -10.77571,-10.3743 -2.35637,-5.4323 -2.34196,-8.5517 0.064,-13.851 2.3279,-5.1273 7.96191,-9.0673 14.18591,-9.9204 9.01351,-1.2354 18.41047,5.7547 19.59352,14.575 1.11302,8.2981 -5.15213,17.7424 -13.22289,19.9326 -4.9224,1.3359 -5.10148,1.3293 -9.84481,-0.3619 z M 378.4221,1431.6307 c -9.53126,-3.5014 -16.48323,-11.5048 -19.05863,-21.941 -1.42701,-5.7826 -1.42429,-6.9037 0.0305,-12.5823 3.43935,-13.4251 12.92633,-21.6783 26.24499,-22.8317 12.41207,-1.075 23.51243,5.2026 28.98751,16.3933 3.79029,7.747 3.83472,18.5235 0.10659,25.8509 -5.48986,10.79 -15.06937,16.5903 -27.02057,16.3608 -3.41687,-0.066 -7.59754,-0.6281 -9.29039,-1.25 z M 1849.6974,869.50078 c -16.1175,-4.43123 -29.9407,-20.55849 -32.5717,-38.00078 -3.7423,-24.80882 11.6271,-47.22452 36.3036,-52.94736 8.4545,-1.96075 11.9187,-1.94899 20.8733,0.0708 12.0806,2.72492 20.2858,7.961 27.1689,17.33768 19.8244,27.00632 7.0055,65.17127 -24.7274,73.61907 -6.4883,1.72728 -20.6262,1.68576 -27.0467,-0.0794 z M 643.02757,717.41959 c -14.76568,-8.43966 -22.41125,-31.45027 -15.58121,-46.89422 3.37861,-7.63963 11.02107,-15.40763 19.27244,-19.589 6.08975,-3.08598 7.59692,-3.43135 14.7812,-3.3871 9.47762,0.0584 14.39258,1.53951 19.24423,5.79931 8.3893,7.36591 10.51434,20.07061 5.73733,34.30108 -1.38514,4.12627 -3.41178,9.2534 -4.50365,11.39363 -2.96902,5.81976 -13.41113,16.47004 -18.48778,18.85635 -6.44388,3.02898 -14.66056,2.83622 -20.46256,-0.48005 z M 527.97138,702.75 c -4.73221,-3.20284 -7.90854,-9.95197 -7.94321,-16.87788 -0.0502,-10.03321 4.54175,-16.52664 14.33096,-20.26517 4.0716,-1.55496 5.40564,-1.65108 8.96226,-0.64576 8.08678,2.28583 11.67861,7.01176 11.67861,15.36609 0,16.67451 -15.95957,29.91444 -27.02862,22.42272 z M 1194.195,671.8921 c -9.3733,-4.69322 -13.2535,-18.99745 -7.7164,-28.44585 1.3633,-2.32621 4.5904,-5.62825 7.1715,-7.33786 5.7992,-3.84123 13.8439,-4.32404 19.0596,-1.14388 4.7641,2.90485 7.6621,9.24868 6.9544,15.22376 -1.8928,15.98174 -14.8481,27.02179 -25.4691,21.70383 z M 1723.5,605.00384 c -25.0425,-3.62989 -40.9167,-22.16664 -44.5614,-52.03576 -7.2792,-59.65378 39.9226,-154.26157 89.3677,-179.12206 13.3051,-6.68967 18.8013,-8.1577 30.6937,-8.19813 18.4001,-0.0626 33.0333,6.33624 47.3577,20.70842 13.9092,13.95566 23.2751,31.68724 28.8175,54.55729 2.9392,12.12837 2.9467,37.46604 0.015,51.0864 -7.531,34.99011 -26.1604,65.55414 -51.3772,84.29133 -9.9825,7.4174 -16.9812,11.02445 -38.3132,19.74608 -4.9154,2.00966 -18.6126,6.04833 -25,7.37133 -8.9275,1.84912 -29.2139,2.72368 -37,1.5951 z m -117.7427,-15.02595 c -12.0865,-3.04724 -19.9644,-13.46433 -20.6082,-27.25062 -0.4527,-9.6952 2.0206,-16.52416 8.1535,-22.51258 4.3585,-4.25581 6.8262,-5.52652 15.1146,-7.78312 11.8679,-3.23114 25.9393,3.75506 32.3647,16.06843 3.4484,6.60842 3.6304,17.56424 0.4113,24.75822 -2.6177,5.84996 -9.1163,12.3779 -14.8451,14.912 -5.0659,2.24088 -15.3066,3.13992 -20.5908,1.80767 z M 686.64255,572.00301 c -6.76104,-2.09996 -10.93667,-9.36054 -10.93667,-19.01671 0,-6.98387 1.51073,-11.03697 5.44911,-14.61933 4.01873,-3.65544 8.53037,-5.36697 14.14747,-5.36697 14.01276,0 19.60391,13.02544 11.9855,27.92206 -4.46468,8.72999 -13.17049,13.40263 -20.64541,11.08095 z m 674.81805,-69.91788 c -12.9552,-2.12837 -24.4682,-15.00183 -28.9616,-32.38392 -1.7918,-6.93154 -1.9663,-22.3408 -0.3179,-28.08519 1.8611,-6.48569 9.1651,-17.0527 14.9449,-21.6214 11.0609,-8.74312 21.7427,-12.49075 33.6394,-11.80206 13.2626,0.76776 23.8635,7.46852 29.3811,18.57163 2.0324,4.08969 2.3479,6.16836 2.3128,15.23581 -0.043,10.97691 -0.7687,14.05834 -6.0178,25.53439 -6.2752,13.71943 -18.4614,28.40135 -26.7708,32.25333 -4.8951,2.26918 -12.5236,3.23162 -18.2101,2.29741 z M 523.36583,436.0814 c -1.72379,-1.05112 -4.41862,-3.59512 -5.9885,-5.65334 -2.39613,-3.14149 -2.91,-4.88082 -3.20114,-10.83514 -0.29969,-6.12946 -0.0296,-7.55573 1.9885,-10.50009 5.70913,-8.32952 13.914,-11.98009 22.56737,-10.04082 10.24576,2.29612 13.86852,11.08236 9.40887,22.81922 -5.00422,13.17002 -16.07109,19.51761 -24.7751,14.21017 z M 1924.7903,407.95257 c -2.2083,-1.16614 -4.7855,-3.79454 -6.3675,-6.49404 -2.2787,-3.88838 -2.596,-5.38694 -2.2254,-10.5102 0.5203,-7.19436 2.6916,-10.56531 8.823,-13.69833 11.9145,-6.08802 25.9796,1.63759 25.9796,14.26997 0,13.70086 -14.348,22.69655 -26.2097,16.4326 z"
         id="path26" />
      <path
         style="fill:#b79de2"
         d="M 0,1500 V 0 h 1500 1500 v 1500 1500 h -327.4809 -327.481 l -0.5075,-2.25 c -2.5663,-11.3788 -16.9056,-67.8417 -21.65,-85.25 -74.4568,-273.199 -183.7131,-501.3445 -319.5989,-667.3763 -40.029,-48.9094 -84.3882,-94.2518 -127.2817,-130.1026 -28.9242,-24.1752 -68.2427,-52.0013 -98.2339,-69.5211 -12.6774,-7.4057 -15.4733,-9.5 -12.6822,-9.5 3.0614,0 54.6742,-27.2872 70.192,-37.1099 52.9765,-33.5338 90.3392,-64.0562 131.457,-107.3901 84.525,-89.0805 142.7273,-205.9855 163.2933,-327.9905 6.2557,-37.1108 8.2155,-60.328 8.6955,-103.0095 0.4121,-36.6478 0.2802,-40.5681 -2.1866,-65 -4.2714,-42.3038 -8.5198,-67.0163 -17.5697,-102.2016 -22.5507,-87.6756 -63.8711,-170.0806 -120.7436,-240.7984 -22.519,-28.0011 -59.8121,-66.07093 -86.7218,-88.52798 -79.8485,-66.63624 -169.9882,-111.24832 -269.8335,-133.5465 -15.2637,-3.4088 -49.7343,-9.47612 -61.9165,-10.89821 -3.1625,-0.36917 -5.75,-0.99073 -5.75,-1.38125 0,-1.04475 17.5496,-18.75157 25.0392,-25.26351 3.5534,-3.08959 16.1358,-12.90673 27.9608,-21.81585 22.8502,-17.21567 46.5777,-37.38471 52.9062,-44.97182 15.2025,-18.22605 22.0065,-41.03235 17.9885,-60.29566 -1.448,-6.94156 -7.7041,-20.01762 -12.5706,-26.27381 -7.9463,-10.21542 -22.3866,-19.48629 -35.7842,-22.9739 -7.6095,-1.98087 -21.4341,-1.99055 -28.9983,-0.0203 -13.2855,3.46042 -26.1611,13.53957 -32.9445,25.78928 -5.8493,10.56283 -9.076,20.96022 -19.079,61.47886 -3.6589,14.82094 -6.5784,24.42976 -9.07,29.8518 -0.7965,1.73312 -1.4481,3.55381 -1.4481,4.04598 0,1.77351 -9.0442,15.51304 -14.8648,22.58184 -8.4538,10.26684 -25.2609,26.63215 -34.6352,33.72483 -15.7945,11.95029 -22.7393,13.99521 -48.5,14.28099 -14.2919,0.15855 -14.6087,0.11433 -22.0728,-3.08149 -15.1157,-6.47194 -19.9196,-16.13029 -14.8124,-29.78057 3.5262,-9.42448 12.571,-17.17735 34.2169,-29.3292 20.2751,-11.38236 28.0225,-25.97908 24.6944,-46.52632 -3.0102,-18.58493 -18.0795,-34.91746 -38.8961,-42.15677 -29.0215,-10.09269 -57.5289,-0.87813 -68.2657,22.06579 -3.4421,7.35572 -6.2877,22.17391 -5.4775,28.52379 0.3159,2.475 1.4745,11.25 2.5749,19.5 2.4301,18.21924 2.5112,23.87392 0.4569,31.85566 -2.407,9.35236 -8.5635,21.5535 -13.7864,27.32228 -5.1439,5.6815 -11.8457,8.98725 -16.0705,7.9269 -4.1274,-1.03592 -9.7196,-6.72351 -12.3918,-12.60318 -2.1736,-4.78271 -2.4966,-6.89006 -2.472,-16.12623 0.016,-5.84351 0.5728,-13.71851 1.2382,-17.5 3.789,-21.53121 4.5221,-24.98528 9.9489,-46.87543 5.7228,-23.08395 7.403,-28.46675 15.6078,-50 7.3122,-19.19081 10.7945,-29.77905 14.6354,-44.5 3.6184,-13.86828 4.7369,-29.82027 2.7486,-39.20078 -3.3845,-15.96776 -15.9785,-26.79667 -31.1666,-26.79843 -11.2039,-10e-4 -16.4717,4.14037 -22.8932,17.99921 -2.915,6.29113 -7.9578,21.77681 -9.8507,30.25 -0.7065,3.1625 -1.5813,5.75 -1.9439,5.75 -0.3627,0 -3.1036,-0.74625 -6.0909,-1.65833 -3.0866,-0.9424 -8.8852,-1.66636 -13.4315,-1.67693 -15.3564,-0.0357 -21.9051,6.35136 -26.0868,25.44283 -1.1591,5.29222 -1.8627,16.34169 -2.4763,38.89243 -0.4715,17.325 -1.2742,33.975 -1.7839,37 -4.7139,27.97975 -15.1426,37.01515 -53.653,46.48515 -19.9832,4.91401 -30.5582,6.08957 -41.2833,4.58921 -13.0891,-1.83107 -20.2697,-3.84433 -30.994,-8.6899 -2.9026,-1.31145 -5.5117,-2.38446 -5.7981,-2.38446 -1.2052,0 -12.4228,-7.64868 -18.6608,-12.72383 -8.3588,-6.80064 -20.1441,-21.17445 -26.6938,-32.55673 -7.2375,-12.57764 -7.6671,-14.57585 -5.5569,-25.84534 5.7768,-30.85067 1.2501,-49.34457 -21.8144,-89.1244 -4.7038,-8.11267 -10.6684,-19.13767 -13.2547,-24.5 -15.7299,-32.61378 -21.3813,-42.02392 -30.4097,-50.63554 -8.25456,-7.87355 -15.02535,-10.73563 -25.45655,-10.76073 -13.24805,-0.0319 -20.28075,3.35543 -38.55297,18.5691 -5.21137,4.33905 -11.45731,8.76595 -13.87986,9.83757 -2.59828,1.14934 -10.40045,2.69708 -19.02479,3.774 -20.46331,2.55526 -28.14811,4.75767 -42.311,12.12601 -18.54051,9.64583 -36.32675,25.37778 -47.37225,41.90081 -16.83859,25.18894 -24.14857,51.71325 -28.89273,104.8374 -1.92997,21.61146 -2.27477,21.97341 -24.51197,25.73169 -16.44977,2.78015 -22.73688,5.643 -28.30284,12.88775 -7.34433,9.55952 -11.65243,20.87223 -13.71718,36.02021 -1.98811,14.5856 1.64398,33.8782 9.21154,48.92907 2.98696,5.94067 10.86723,16.59693 14.44633,19.53536 13.56149,11.13395 24.17867,15.70573 43.19728,18.60085 6.59246,1.00355 11.7958,2.13283 11.56299,2.50953 -0.23281,0.37669 -3.91237,1.51447 -8.1768,2.52839 -10.35082,2.46104 -30.72681,2.45277 -41.2535,-0.0167 -7.3655,-1.72791 -21.56302,-5.95438 -25.5,-7.59112 -1.1,-0.45731 -3.575,-1.39439 -5.5,-2.0824 -7.54183,-2.69551 -29.68952,-13.14844 -38.74651,-18.287 C 663.36269,804.244 642.68772,785.22091 636.71115,772 c -0.87021,-1.925 -2.91464,-6.49703 -4.54318,-10.16007 -3.20911,-7.21818 -9.47172,-14.73168 -15.4099,-18.48787 C 610.5226,739.40781 598.54672,736 590.92115,736 c -15.64658,0 -34.63275,7.47229 -44.14211,17.37279 -12.86009,13.38905 -19.82226,37.0258 -15.29801,51.93714 6.80883,22.44102 27.47648,34.0244 64.51897,36.16026 26.89834,1.55095 52.65225,5.22382 67.02078,9.55811 11.80735,3.56171 56.47699,28.9143 74.97922,42.55501 17.06582,12.58172 29.18838,25.53764 34.54213,36.91669 4.56898,9.71107 1.17429,22.94432 -7.43693,28.99085 -3.99806,2.80731 -4.86639,3.00346 -12.94536,2.9243 -7.45905,-0.0731 -9.76548,-0.54958 -16.6335,-3.43642 -17.29847,-7.2711 -28.81476,-15.02511 -57.6495,-38.8159 -34.99329,-28.87204 -62.37149,-43.70016 -94.53256,-51.19914 -17.42008,-4.06183 -44.26154,-4.27325 -60.6283,-0.47755 -14.07015,3.26309 -29.66287,10.06767 -41.25303,18.0026 -30.54999,20.91534 -45.94358,42.9694 -54.64068,78.2825 -3.20911,13.03005 -3.18821,41.45956 0.0412,56.08356 3.52908,15.9808 6.38091,24.1317 13.41721,38.348 18.27147,36.9161 52.97317,64.1474 92.16456,72.3238 8.05039,1.6795 26.01008,1.9298 36.76387,0.5124 34.96287,-4.6083 55.65903,-5.4485 65.29085,-2.6508 32.57256,9.4614 62.68065,37.6329 77.75989,72.7583 9.97253,23.23 11.51176,50.419 4.1031,72.4773 -9.54951,28.4325 -37.70871,58.4345 -71.36299,76.0333 -8.99061,4.7014 -17.68056,8.0098 -32.5,12.3732 -14.99658,4.4156 -19.40637,5.8401 -35,11.3057 -27.98668,9.8094 -40.81019,15.575 -54.2888,24.4089 C 501.9973,1412.6485 491,1428.6113 491,1445.5 c 0,15.4019 11.15445,35.6947 24.24767,44.1127 12.27253,7.8903 30.9786,7.811 50.85202,-0.2157 14.86755,-6.0048 23.94204,-11.3662 61.40031,-36.2766 15.4,-10.2412 30.925,-20.0469 34.5,-21.7904 15.26698,-7.4455 24,-8.362 24,-2.5187 0,1.4337 -2.88474,7.3304 -6.43911,13.1621 -8.11078,13.3076 -12.78732,24.2257 -14.90452,34.7969 -2.08342,10.4026 -2.05837,13.6775 0.18534,24.2297 2.27756,10.7114 6.32757,18.9795 11.74096,23.9694 7.40489,6.8256 14.21685,9.514 31.91733,12.5964 11.0911,1.9314 17.04985,4.1127 19.88049,7.2775 1.84302,2.0607 1.83659,2.2675 -0.32232,10.3796 -4.31966,16.2312 -6.00653,25.43 -6.65243,36.2771 -2.2841,38.3587 12.45245,64.6443 42.09426,75.0836 3.66489,1.2907 9.13884,1.8734 20.5,2.1823 13.37712,0.3636 16.66416,0.131 24,-1.6979 24.71919,-6.1628 44.723,-23.0757 51.85976,-43.8466 1.18651,-3.4532 3.08411,-12.0032 4.21689,-19 1.13279,-6.9968 3.00381,-18.1214 4.15783,-24.7214 l 2.09823,-12 3.23447,15.7195 c 9.18392,44.6337 23.13993,88.492 41.13794,129.2805 8.59053,19.4685 22.15015,46.5 23.3255,46.5 0.43647,0 1.08491,-1.9125 1.44097,-4.25 0.35607,-2.3375 1.3085,-7.625 2.11652,-11.75 0.80802,-4.125 1.90445,-9.75 2.43651,-12.5 2.29823,-11.8787 4.87488,-23.4245 6.47182,-29 0.9452,-3.3 2.08251,-7.35 2.52735,-9 0.44485,-1.65 2.67441,-9.525 4.95457,-17.5 2.28016,-7.975 4.80158,-16.975 5.60316,-20 0.80157,-3.025 2.12073,-7.75 2.93144,-10.5 2.06814,-7.0152 9.14802,-33.486 9.76232,-36.5 0.28024,-1.375 1.52261,-7.225 2.76082,-13 2.81621,-13.1347 3.0381,-27.6221 0.57435,-37.5 -3.79073,-15.1982 -9.11207,-27.2212 -15.19159,-34.3238 -3.70668,-4.3304 -15.05937,-10.4856 -23.41886,-12.6973 -27.39284,-7.2474 -55.57024,13.4256 -68.59471,50.326 -1.29971,3.6823 -2.3726,6.3221 -2.3842,5.8662 -0.0116,-0.4559 -1.1343,-8.5559 -2.4949,-18 -5.63732,-39.1295 -7.59824,-75.3813 -6.35152,-117.4211 4.40056,-148.3887 62.16801,-292.4094 161.94623,-403.75 14.7939,-16.5082 44.8188,-46.01309 60.3791,-59.33339 58.1516,-49.78015 124.9982,-88.86035 196.9992,-115.17064 48.8283,-17.84262 106.5465,-30.72139 160.0008,-35.70127 34.5545,-3.21915 124.5062,-1.9991 130.6071,1.77148 1.0679,0.66003 0.9167,1.29667 -0.7436,3.13115 -10.9062,12.05001 -22.383,36.36397 -28.7002,60.80267 -6.2689,24.25169 -8.9692,43.00234 -9.0727,63 -0.098,19.00505 0.3039,20.77858 5.8976,26 2.4095,2.24907 3.508,2.5 10.9451,2.5 4.5468,0 9.3469,-0.51728 10.6668,-1.14951 1.3199,-0.63222 5.7749,-2.6954 9.8999,-4.58483 7.5082,-3.43905 25.9791,-15.51763 48.5,-31.71535 27.2602,-19.60635 48.6058,-32.14371 68,-39.93997 4.4,-1.76875 8.9,-3.62662 10,-4.12861 3.8341,-1.74969 14.7213,-5.07158 22.8318,-6.96637 17.0037,-3.97249 44.881,-3.458 58.7475,1.08421 33.734,11.05011 57.331,40.07384 71.8718,88.40043 3.5404,11.76648 4.5308,20.4987 4.4237,39 -0.1398,24.1312 -2.588,38.3384 -10.0333,58.2249 -14.9345,39.8903 -45.7399,72.562 -78.9268,83.7083 -8.5051,2.8566 -23.2851,5.5583 -30.4147,5.5596 -10.6203,0 -23.6093,-3.1878 -47,-11.5419 -18.0083,-6.4317 -20.3932,-6.8613 -38,-6.8454 -26.2791,0.024 -40.2256,4.1684 -57,16.9399 -10.0501,7.6518 -18.0218,17.7991 -23.8255,30.3277 -2.344,5.0601 -2.6019,6.7854 -2.5602,17.1269 0.051,12.6724 1.3255,17.3227 7.6039,27.7466 4.3393,7.2044 15.0171,17.1857 21.8203,20.3969 12.0324,5.6796 17.1226,6.3659 44.7577,6.0349 27.2224,-0.3261 30.6144,0.1137 35.4138,4.591 7.1391,6.66 5.3269,28.3196 -2.8339,33.8715 -8.5851,5.8405 -10.5866,5.7586 -38.8761,-1.5918 -21.1571,-5.4972 -26.4559,-6.3587 -39.5,-6.4221 -14.0331,-0.068 -20.9313,1.5771 -25.4162,6.0619 -2.8476,2.8476 -3.2006,5.5705 -1.1921,9.1939 2.5122,4.5321 13.1436,14.3093 22.0795,20.3055 8.1333,5.4577 22.2627,12.8117 24.6154,12.8117 0.5173,0 1.7219,0.4372 2.677,0.9715 5.084,2.8446 20.6996,6.5456 44.2364,10.4842 7.975,1.3345 18.55,3.1599 23.5,4.0563 4.95,0.8965 11.25,2.0109 14,2.4766 15.0343,2.546 28.2438,11.9415 31.908,22.6953 0.8756,2.5698 1.5871,7.4047 1.5812,10.7442 -0.047,26.2244 -23.9655,42.9652 -47.3983,33.1743 -4.2258,-1.7656 -14.6243,-9.3564 -31.841,-23.2436 -20.4035,-16.4577 -29.8343,-22.2617 -43.9414,-27.0429 -7.4901,-2.5385 -9.6383,-2.8159 -21.8085,-2.8159 -13.6885,0 -19.606,0.9212 -30,4.6705 -14.192,5.1192 -23.8234,12.5919 -29.5,22.8881 -2.8217,5.1181 -3,6.095 -3,16.4414 0,10.3399 0.18,11.3283 3,16.4705 6.4181,11.7033 19.1276,22.3939 31,26.0757 2.4024,0.745 13.9851,1.5249 29,1.9528 22.1331,0.6306 25.7454,0.9687 31.5,2.9479 15.1965,5.2268 24.2242,14.1823 29.465,29.2296 1.0176,2.9214 1.5056,8.215 1.5051,16.3235 0,30.3381 -12.1937,49.5217 -35.5869,55.9959 -5.0261,1.391 -8.7704,1.5878 -21,1.1034 -8.1857,-0.3243 -17.9393,-0.8559 -21.6745,-1.1816 -6.2144,-0.5417 -7.0747,-0.3759 -10.1264,1.9517 -2.051,1.5644 -5.1025,5.9659 -7.926,11.4328 -6.3595,12.3131 -12.6248,20.509 -18.1562,23.7506 -2.5389,1.4879 -9.4286,3.9561 -15.3103,5.4848 -13.4409,3.4933 -15.4358,4.4159 -17.6487,8.1622 -1.3943,2.3603 -1.6507,4.2105 -1.161,8.3772 0.3457,2.9413 1.0274,6.3773 1.5149,7.6354 3.4479,8.898 4.9919,12.0699 8.781,18.0391 5.458,8.5985 10.9592,14.588 20.0872,21.8706 8.6733,6.9198 16.0617,11.1535 31.9048,18.2822 6.5076,2.9281 14.082,6.3696 16.832,7.6477 15.2308,7.0788 28.2625,18.3904 34.3503,29.8163 7.4606,14.0025 10.8869,31.6676 8.1241,41.8861 -5.7102,21.1193 -19.178,32.1735 -35.5182,29.1529 -14.8161,-2.7389 -31.0767,-15.3351 -47.1251,-36.5053 -6.507,-8.5836 -8.7994,-11.9455 -30.617,-44.902 -17.2394,-26.0409 -24.3044,-35.0401 -39.7141,-50.5867 -17.7839,-17.9419 -44.0123,-37.5751 -65.249,-48.842 -24.6981,-13.1033 -65.4668,-16.6714 -90.251,-7.8987 -16.0049,5.6651 -26.2246,12.2978 -39.125,25.3923 -16.814,17.067 -31.687,45.2408 -39.0304,73.9351 -2.5822,10.0898 -2.4574,33.6385 0.2226,42 1.5047,4.6948 1.9241,8.9367 1.9279,19.5 0,12.5796 -0.179,13.8924 -2.6925,19.256 -3.416,7.2893 -10.4297,14.045 -20.4784,19.7251 -20.9515,11.8428 -22.9456,13.6649 -49.814,45.5189 -22.8829,27.129 -44.9413,45.801 -71.0949,60.1808 -9.2701,5.0968 -23.2905,11.3192 -25.5049,11.3192 -1.5383,0 -18.3752,-16.2071 -35.2925,-33.9723 -34.67152,-36.4093 -67.77068,-81.4074 -93.36109,-126.9237 -3.01821,-5.3683 -3.03693,-5.3811 -3.65079,-2.5 -0.5767,2.7068 -2.35609,14.1295 -4.59463,29.4953 -0.52878,3.6295 -0.94522,11.1656 -0.92544,16.7468 0.0198,5.5812 -0.22727,10.5735 -0.549,11.0941 -1.39832,2.2625 2.49603,31.6892 5.56623,42.0598 7.24573,24.4749 29.16553,48.4779 55.96505,61.2839 15.93687,7.6153 24.18187,9.1384 45.76607,8.4542 11.69,-0.3706 17.6309,-1.0379 23.4094,-2.6295 l 7.7436,-2.1328 13.7564,11.8412 c 41.9252,36.0884 92.1068,68.8576 139.0063,90.7728 6.7375,3.1484 12.25,6.0606 12.25,6.4718 0,0.4111 -2.5875,2.1896 -5.75,3.9522 -34.9865,19.4995 -82.7667,54.1266 -122.25,88.5966 -18.7902,16.4044 -65.648,63.5028 -83.461,83.8896 -42.83704,49.0266 -80.55264,99.6015 -116.70798,156.5 -94.73022,149.0791 -172.62778,333.0464 -229.71162,542.5 -4.7444,17.4083 -19.08368,73.8712 -21.65004,85.25 L 654.9619,3000 H 327.48095 0 Z m 909.53544,469.4399 c 23.04224,-10.9007 22.88018,-45.107 -0.26348,-55.6128 -15.8353,-7.1882 -33.74383,-0.7226 -41.37177,14.9367 -3.43297,7.0475 -3.27493,19.7705 0.3321,26.7362 3.21746,6.2134 8.07751,10.9556 14.40429,14.055 7.15179,3.5035 19.3602,3.4513 26.89886,-0.1151 z m 270.16536,-235.4882 c 7.7262,-1.6876 15.2262,-7.4188 18.7482,-14.3265 2.8011,-5.494 2.994,-6.5961 2.9747,-17 -0.011,-6.1189 -0.592,-13.8252 -1.2903,-17.1252 -7.5978,-35.9039 -42.711,-81.3671 -73.2872,-94.8893 -6.1271,-2.7097 -16.2824,-5.041 -18.4072,-4.2257 -1.8199,0.6984 -1.8218,4.4343 -0.01,13.758 0.7876,4.0464 2.1579,11.407 3.0452,16.357 0.8872,4.95 2.016,11.025 2.5084,13.5 0.4924,2.475 1.6286,8.55 2.5248,13.5 2.7833,15.3713 5.6911,29.2098 8.4051,40 5.3804,21.3909 16.0293,39.9765 26.6749,46.5559 7.5358,4.6573 17.9906,6.1063 28.1104,3.8958 z M 286.91069,1721.202 c 1.87588,-0.9361 4.78062,-3.4062 6.45498,-5.4892 2.49872,-3.1085 3.11285,-4.9006 3.42691,-10 0.32417,-5.2635 0.0218,-6.7439 -1.97877,-9.689 -3.93318,-5.79 -8.19514,-8.0288 -15.21169,-7.9906 -4.98354,0.027 -6.81612,0.5313 -9.99717,2.75 -5.80131,4.0464 -7.84817,8.4394 -7.25853,15.5782 0.53187,6.4394 3.72025,11.5423 9.23409,14.7788 3.756,2.2046 10.9776,2.2337 15.33018,0.062 z m 48.65565,-84.2638 c 20.06126,-3.59 41.31633,-15.7765 60.00476,-34.4035 18.24397,-18.184 30.70746,-38.018 35.47265,-56.45 3.04105,-11.7629 2.49854,-25.1666 -1.34196,-33.1562 -5.52994,-11.5042 -16.00197,-19.0808 -32.48488,-23.5029 -8.08457,-2.169 -28.46022,-3.7277 -40.71691,-3.1148 -14.33965,0.7171 -37.13142,4.6788 -44,7.6481 -18.01216,7.7867 -29.02467,15.3322 -38.17292,26.1549 -6.29388,7.4459 -10.33063,14.8394 -13.86868,25.4011 -2.27155,6.781 -2.68931,9.7946 -2.77047,19.9851 -0.10977,13.7843 1.53302,21.7088 6.93196,33.438 8.84689,19.2199 24.98428,33.0871 43.83172,37.6656 6.39136,1.5525 19.41066,1.7132 27.11473,0.3346 z M 611.5,1536.9033 c 8.07076,-2.1902 14.33591,-11.6345 13.22289,-19.9326 -1.18305,-8.8203 -10.58001,-15.8104 -19.59352,-14.575 -6.224,0.8531 -11.85801,4.7931 -14.18591,9.9204 -2.40594,5.2993 -2.42035,8.4187 -0.064,13.851 2.29506,5.291 5.69248,8.5618 10.77571,10.3743 4.74333,1.6912 4.92241,1.6978 9.84481,0.3619 z M 399.31099,1430.9848 c 6.37729,-2.386 11.92285,-7.5874 15.42207,-14.4649 3.72813,-7.3274 3.6837,-18.1039 -0.10659,-25.8509 -5.47508,-11.1907 -16.57544,-17.4683 -28.98751,-16.3933 -13.31866,1.1534 -22.80564,9.4066 -26.24499,22.8317 -1.45479,5.6786 -1.45751,6.7997 -0.0305,12.5823 2.5754,10.4362 9.52737,18.4396 19.05863,21.941 5.14023,1.8883 14.92427,1.5858 20.88889,-0.6459 z M 1876.7441,869.58021 C 1898.7984,863.709 1912.5756,843.76045 1910.6406,820.5 1909.3001,804.38657 1899.2653,789.11679 1885.5,782.24404 1880.8446,779.91967 1868.6597,777 1863.6146,777 c -5.5972,0 -16.4123,2.86908 -22.6117,5.99853 -16.724,8.44226 -26.8249,28.96007 -23.8772,48.50147 2.631,17.44229 16.4542,33.56955 32.5717,38.00078 6.4205,1.76519 20.5584,1.80671 27.0467,0.0794 z M 663.49013,717.89964 c 5.07665,-2.38631 15.51876,-13.03659 18.48778,-18.85635 1.09187,-2.14023 3.11851,-7.26736 4.50365,-11.39363 4.77701,-14.23047 2.65197,-26.93517 -5.73733,-34.30108 -4.85165,-4.2598 -9.76661,-5.74094 -19.24423,-5.79931 -7.18428,-0.0443 -8.69145,0.30112 -14.7812,3.3871 -8.25137,4.18137 -15.89383,11.94937 -19.27244,19.589 -6.83004,15.44395 0.81553,38.45456 15.58121,46.89422 5.802,3.31627 14.01868,3.50903 20.46256,0.48005 z M 541.45598,703.45386 C 549.05941,699.8458 555,689.70217 555,680.32728 c 0,-8.35433 -3.59183,-13.08026 -11.67861,-15.36609 -3.55662,-1.00532 -4.89066,-0.9092 -8.96226,0.64576 -9.78921,3.73853 -14.38118,10.23196 -14.33096,20.26517 0.0694,13.86525 10.76537,22.6414 21.42781,17.58174 z m 665.30562,-32.15043 c 6.3348,-2.99554 11.8196,-11.97157 12.9025,-21.11516 0.7077,-5.97508 -2.1903,-12.31891 -6.9544,-15.22376 -5.2157,-3.18016 -13.2604,-2.69735 -19.0596,1.14388 -2.5811,1.70961 -5.8082,5.01165 -7.1715,7.33786 -5.5371,9.4484 -1.6569,23.75263 7.7164,28.44585 4.5362,2.27131 6.7365,2.16824 12.5666,-0.58867 z M 1760.5,603.40874 c 6.3874,-1.323 20.0846,-5.36167 25,-7.37133 21.332,-8.72163 28.3307,-12.32868 38.3132,-19.74608 25.2168,-18.73719 43.8462,-49.30122 51.3772,-84.29133 2.9315,-13.62036 2.924,-38.95803 -0.015,-51.0864 -9.0977,-37.54072 -30.6333,-64.37774 -58.6752,-73.11928 -9.5837,-2.98754 -25.3505,-3.00938 -34.0839,-0.0472 -26.0312,8.82926 -47.877,28.65897 -68.6984,62.35866 -30.4728,49.32068 -42.9059,105.35748 -31.0318,139.86232 6.8832,20.00197 21.0611,32.17258 40.8141,35.03576 7.7861,1.12858 28.0725,0.25402 37,-1.5951 z m -134.1519,-15.23852 c 5.7288,-2.5341 12.2274,-9.06204 14.8451,-14.912 3.2191,-7.19398 3.0371,-18.1498 -0.4113,-24.75822 -6.4254,-12.31337 -20.4968,-19.29957 -32.3647,-16.06843 -8.2884,2.2566 -10.7561,3.52731 -15.1146,7.78312 -6.1329,5.98842 -8.6062,12.81738 -8.1535,22.51258 0.6438,13.78629 8.5217,24.20338 20.6082,27.25062 5.2842,1.33225 15.5249,0.43321 20.5908,-1.80767 z m -925.86064,-19.0078 c 8.00857,-5.50292 12.74499,-20.60903 8.82389,-28.14249 -6.17761,-11.86879 -25.36732,-10.39317 -32.05342,2.46479 -0.93862,1.80505 -1.55205,5.56042 -1.55205,9.50158 0,16.59808 12.39381,24.68811 24.78158,16.17612 z m 679.18324,-69.3747 c 8.3094,-3.85198 20.4956,-18.5339 26.7708,-32.25333 5.2491,-11.47605 5.9753,-14.55748 6.0178,-25.53439 0.035,-9.06745 -0.2804,-11.14612 -2.3128,-15.23581 -5.5176,-11.10311 -16.1185,-17.80387 -29.3811,-18.57163 -11.8967,-0.68869 -22.5785,3.05894 -33.6394,11.80206 -5.7798,4.5687 -13.0838,15.13571 -14.9449,21.6214 -1.6484,5.74439 -1.4739,21.15365 0.3179,28.08519 4.4934,17.38209 16.0064,30.25555 28.9616,32.38392 5.6865,0.93421 13.315,-0.0282 18.2101,-2.29741 z M 536.87092,436.06585 c 9.48054,-4.83661 16.03984,-21.53637 11.73146,-29.86787 -2.14071,-4.13968 -4.68942,-5.98491 -9.87032,-7.14597 -8.65337,-1.93927 -16.85824,1.7113 -22.56737,10.04082 -2.01809,2.94436 -2.28819,4.37063 -1.9885,10.50009 0.29114,5.95432 0.80501,7.69365 3.20114,10.83514 5.67607,7.44171 12.23777,9.33943 19.49359,5.63779 z M 1940.2997,408.37941 c 4.5449,-2.30147 6.6406,-4.34552 8.8067,-8.58957 7.7381,-15.16152 -8.6013,-30.45211 -24.086,-22.53984 -6.1314,3.13302 -8.3027,6.50397 -8.823,13.69833 -0.3706,5.12326 -0.053,6.62182 2.2254,10.5102 4.4987,7.6764 14.2764,10.76962 21.8769,6.92088 z M 1704.4131,2006.1147 c -7.6189,-2.1814 -13.4165,-5.1572 -20.2319,-10.3846 -20.7373,-15.9054 -38.7649,-51.6867 -47.1227,-93.5293 -1.428,-7.1492 -1.3418,-25.4989 0.1437,-30.5848 4.5298,-15.5082 15.1016,-21.4224 36.2524,-20.2807 6.075,0.3279 13.3884,1.2561 16.252,2.0627 6.4446,1.8151 22.4834,8.1904 27.2497,10.8316 11.6746,6.4692 15.5302,8.8603 24.5365,15.2172 12.547,8.856 32.7503,28.7103 38.8546,38.1835 14.0351,21.7808 12.668,43.035 -4.0931,63.6335 -9.3179,11.4511 -24.962,21.5677 -38.8986,25.1548 -8.3072,2.1381 -24.9499,1.9846 -32.9426,-0.3039 z m -484.9994,-45.484 c -18.0897,-6.6273 -31.1165,-30.2923 -29.037,-52.7498 1.7606,-19.0136 12.1439,-33.7931 28.4541,-40.5016 15.0822,-6.2035 37.4803,1.3679 47.6969,16.1232 5.5763,8.0535 7.4739,14.5345 7.4615,25.4834 -0.014,11.9642 -3.0943,22.1335 -9.4946,31.342 -2.6211,3.7711 -12.8292,13.7158 -16.2479,15.8286 -8.6967,5.3749 -21.1146,7.3019 -28.833,4.4742 z m 348.0863,-80.97 c -4.6236,-2.132 -8.2355,-6.3482 -10.0067,-11.6809 -1.9793,-5.9592 -0.7357,-11.3294 3.6665,-15.832 6.7495,-6.9036 16.4711,-7.9549 23.5601,-2.5478 3.7908,2.8913 7.2231,9.307 7.2581,13.5671 0.036,4.3851 -3.5711,11.4207 -7.3224,14.282 -4.281,3.2653 -12.5568,4.3322 -17.1556,2.2116 z M 1298,1765.2785 c -10.9621,-4.1191 -15.0739,-22.0951 -7.1955,-31.458 2.9422,-3.4967 11.8225,-7.832 15.974,-7.7985 4.1291,0.033 10.8427,3.4702 12.8935,6.6005 2.5916,3.9556 2.3241,13.4155 -0.5561,19.673 -4.5723,9.9336 -13.926,15.6846 -21.1159,12.983 z m 410,-133.6144 c -27.548,-6.4187 -48.644,-42.1765 -37.9346,-64.2992 5.2402,-10.8248 24.1264,-16.2118 41.2903,-11.7775 14.7214,3.8033 28.5493,13.9495 34.194,25.0899 2.4511,4.8375 3.0091,7.2944 3.2979,14.5209 0.6355,15.9041 -5.94,28.3299 -18.3476,34.6717 -5.1468,2.6307 -15.4007,3.4483 -22.5,1.7942 z m 132,-261.7057 c -23.9864,-2.4426 -57.5677,-17.644 -77.6057,-35.1302 -9.0421,-7.8907 -15.6038,-15.8637 -19.356,-23.5192 -2.7928,-5.6981 -3.344,-7.9511 -3.3786,-13.809 -0.051,-8.6442 2.2325,-13.5347 9.056,-19.394 4.3673,-3.7501 17.1535,-10.7361 26.5515,-14.5068 4.1002,-1.6451 23.1004,-6.9513 28.7328,-8.0241 15.3644,-2.9267 22.2395,-3.6799 34,-3.7247 19.4046,-0.074 30.2483,1.9787 43.5909,8.2511 13.6706,6.4265 23.8835,19.2806 27.7787,34.9624 2.2358,9.001 2.1415,24.6379 -0.202,33.5037 -5.2331,19.7979 -19.3207,35.03 -36.6676,39.6468 -7.3607,1.9589 -22.442,2.7683 -32.5,1.744 z m 65,-264.6621 c -2.3174,-0.8432 -7.0225,-5.4977 -8.5893,-8.4966 -1.8952,-3.6277 -1.7857,-11.7408 0.2125,-15.7462 2.1718,-4.3535 9.6939,-9.0535 14.4897,-9.0535 5.9282,0 12.4114,3.3241 15.4559,7.9246 2.3388,3.5341 2.6194,4.797 2.2379,10.0715 -0.7326,10.1273 -6.9582,16.0623 -16.7046,15.925 -3.0811,-0.043 -6.2771,-0.3246 -7.1021,-0.6248 z"
         id="path24" />
    </g>
  </g>
</svg>
